<svg xmlns="http://www.w3.org/2000/svg" width="120.247" height="25" viewBox="0 0 120.247 25"><path d="M29.532 6.57l-9.987 5.894 5.274-8.558c-1.524-.933-3.214-1.425-5.287-1.429C13.989 2.474 9.467 6.881 9.488 12.48c-.021 5.58 4.51 10.058 10.069 10.058 3.619 0 6.799-1.905 8.575-4.775l.47 1.47C26.153 22.477 21.54 25.005 15.444 25 5.431 24.997-.003 18.92 0 12.48-.003 6.021 5.7.003 15.444 0c6.832 0 11.201 2.528 14.088 6.57zm44.942 17.802h-7.348V9.755a1.833 1.833 0 0 0-1.825-1.834 1.834 1.834 0 0 0-1.834 1.834l.005 14.617h-7.324V7.921h-4.886L58.3 4.58c.484-.187.962-.314 1.511-.314a3.661 3.661 0 0 1 3.618 3.094l5.836-2.76c.471-.185.979-.334 1.525-.334 2.019 0 3.684 1.64 3.684 3.651v16.455zM49.452 8.768l4.358 15.613h-7.327l-.95-3.449c-1.508 2.157-4.552 3.904-8.298 3.895-3.358.008-7.584-2.622-7.595-6.58.011-3.944 4.237-6.526 7.608-6.538 2.391.012 4.523.627 6.27 2.011l-1.636-5.828h-9.508l8.603-3.184c4.337-1.615 7.757 1.392 8.475 4.06zm-8.574 13.258a3.75 3.75 0 0 0 0-7.497 3.755 3.755 0 0 0-3.759 3.746 3.755 3.755 0 0 0 3.759 3.751zm36.029-7.397c0-5.721 4.642-10.363 10.371-10.363 5.732 0 10.376 4.642 10.376 10.363 0 5.724-4.643 10.36-10.376 10.36-5.729-.001-10.371-4.636-10.371-10.36zm12.799 8.802c1.23-.356 1.892-1.533 1.565-2.743L87.633 7.355c-.318-1.18-1.504-1.887-2.755-1.536a2.197 2.197 0 0 0-1.533 2.739L87 21.886c.307 1.197 1.513 1.862 2.706 1.545zm30.541.95h-7.356l.003-14.621a1.83 1.83 0 0 0-1.83-1.83 1.834 1.834 0 0 0-1.834 1.83l.004 14.621h-7.322V7.93H97.03l7.034-3.341c.483-.19.97-.314 1.511-.314 1.83 0 3.35 1.338 3.618 3.093l5.836-2.763c.471-.182.979-.331 1.524-.331 2.028 0 3.693 1.636 3.693 3.647v16.46h.001z" fill-rule="evenodd" clip-rule="evenodd" fill="#FFF"/></svg>