<svg xmlns="http://www.w3.org/2000/svg" width="188.224" height="150" viewBox="0 0 188.224 150"><path fill="#FFF" d="M78.913 122.294V68.271c0-2.612-.683-4.659-2.048-6.135-1.364-1.476-2.729-2.497-4.093-3.066 1.25-.569 2.529-1.651 3.837-3.244 1.306-1.593 1.96-4.04 1.96-7.343V11.778c0-3.981-.965-6.941-2.899-8.877C73.738.968 71.294 0 68.337 0H41.725v126.894h16.714v-58.16h1.882c.909 0 1.449.229 1.619.683.17.452.255.966.255 1.529v51.866c0 1.931.399 3.29 1.194 4.082h16.204v-.34a8.786 8.786 0 0 1-.511-1.872c-.113-.684-.169-1.479-.169-2.388zM62.196 52.02c0 1.479-.625 2.218-1.875 2.218h-1.882V12.791h2.052c.795 0 1.279.17 1.449.511.17.343.255.912.255 1.707V52.02zM80.45 15.35h7.332v111.544h16.374V15.35h7.504V0H80.45zm49.969 52.19h9.893V52.19h-9.893V15.35h11.428V0h-27.801v126.894h28.144v-15.35h-11.771zM188.223 0h-36.814v31.308h13.574V15.35h9.649c-10.229 30.93-17.917 80.505-17.917 111.545h17.028c-.367-44.112 4.21-74.81 14.481-112.985V0zM9.242 0L0 126.894h16.448l.855-25.753h5.287l.72 25.753h17.06L31.118 0H9.242zm8.589 86.642l1.377-51.326.064-3.317h1.194l.084 3.274 1.377 51.37h-4.096zM.921 149.623v-10.64h11.228v2.382H4.734v1.748h6.857v2.396H4.734v1.703h7.55v2.411H.921zm23.512-1.416c-.889 1.115-2.486 1.733-5.395 1.733-2.501 0-3.918-.588-4.702-1.477-.723-.799-.799-1.628-.859-2.02l3.753-.091c.03.181.105.467.482.738.361.272.889.467 1.884.467.392 0 .874-.045 1.236-.226.316-.166.602-.467.602-.844 0-.241-.105-.558-.602-.769-.257-.105-.89-.226-1.628-.361-.829-.166-1.673-.302-2.502-.528-.904-.257-1.733-.573-2.276-1.402a2.692 2.692 0 0 1-.422-1.477c0-.573.165-1.1.467-1.568.693-1.115 2.17-1.853 4.898-1.853.935 0 2.427.121 3.316.422.377.12.723.301 1.04.542 1.01.738 1.16 1.673 1.235 2.14l-3.722.211c-.045-.121-.075-.241-.136-.346-.241-.407-.783-.648-1.748-.648-.06 0-.979-.015-1.432.362a.655.655 0 0 0-.241.512c0 .121.03.317.241.482.528.422 2.411.678 4.311 1.115 1.221.286 1.793.603 2.2 1.04.272.272.709.829.709 1.824 0 .726-.256 1.464-.709 2.022zm14.802.045c-1.372 1.386-3.587 1.732-5.441 1.732-2.005 0-3.15-.376-3.949-.753-1.055-.497-3.089-1.809-3.089-4.928 0-.558.076-1.929.965-3.21.934-1.341 2.652-2.562 6.194-2.562 2.894 0 4.537.754 5.426 1.733.588.633.814 1.341.904 1.628l-3.526.618c-.106-.211-.166-.332-.317-.528-.573-.739-1.522-1.04-2.411-1.025-.361 0-1.567.076-2.411.965-.588.633-.829 1.522-.829 2.366 0 1.131.407 1.809.693 2.17.829 1.085 1.959 1.115 2.442 1.115 1.416 0 2.261-.708 2.592-1.145.12-.166.196-.286.331-.633l3.632.376a4.988 4.988 0 0 1-1.206 2.081zm14.364.361c-.919.86-2.457 1.387-5.154 1.387-.256 0-1.281 0-2.215-.121-.361-.045-2.547-.301-3.541-1.808-.588-.89-.558-1.914-.558-2.261v-6.827h3.798v6.044c0 .769.06 1.447.678 2.004.663.603 1.583.603 1.839.603.211 0 1.16-.016 1.793-.558.272-.241.407-.528.453-.633.226-.482.241-.965.241-1.477v-5.983h3.797v5.576c-.001 1.447.044 2.954-1.131 4.054zm3.71 1.01v-10.64h11.228v2.382h-7.415v1.748h6.857v2.396h-6.857v1.703h7.55v2.411H57.309zm13.309 0v-10.64h3.828v8.048h5.441v2.592h-9.269zm19.608 0l-.573-1.733h-4.069l-.572 1.733h-4.19l4.596-10.64h4.34l4.612 10.64h-4.144zm-2.622-7.686l-1.221 3.601h2.471l-1.25-3.601zm26.135 5.968c-.181.226-.558.603-1.191.965a5.95 5.95 0 0 1-1.356.543c-.542.135-.934.211-2.005.211h-6.752v-10.64h6.044c.421 0 .844.016 1.266.045 2.471.211 3.557 1.251 4.19 2.17.904 1.296.934 2.652.934 3.225 0 .482-.045 2.215-1.13 3.481zm-3.571-5.817c-.799-.603-1.929-.573-2.186-.573h-1.823v5.697h1.944c.211 0 .437-.015.663-.045 1.311-.165 1.778-.754 2.034-1.296a3.365 3.365 0 0 0 .346-1.537c.001-.332-.044-1.523-.978-2.246zm6.814 7.535v-10.64h11.228v2.382h-7.415v1.748h6.857v2.396h-6.857v1.703h7.55v2.411h-11.363zm31.726-1.371c-1.372 1.386-3.587 1.732-5.441 1.732-2.005 0-3.15-.376-3.949-.753-1.055-.497-3.089-1.809-3.089-4.928 0-.558.076-1.929.965-3.21.934-1.341 2.652-2.562 6.194-2.562 2.894 0 4.537.754 5.426 1.733.588.633.814 1.341.904 1.628l-3.526.618c-.106-.211-.166-.332-.317-.528-.573-.739-1.522-1.04-2.411-1.025-.361 0-1.567.076-2.411.965-.588.633-.829 1.522-.829 2.366 0 1.131.407 1.809.693 2.17.829 1.085 1.959 1.115 2.442 1.115 1.416 0 2.261-.708 2.592-1.145.12-.166.196-.286.331-.633l3.632.376a4.965 4.965 0 0 1-1.206 2.081zm2.896 1.371v-10.64h3.813v10.64h-3.813zm15.237 0l-5.049-5.697v5.697h-3.768v-10.64h3.15l5.079 5.607v-5.607h3.753v10.64h-3.165zm5.73 0v-10.64h11.228v2.382h-7.415v1.748h6.857v2.396h-6.857v1.703h7.55v2.411h-11.363z"/></svg>