<svg xmlns="http://www.w3.org/2000/svg" width="435.06" height="359.783" viewBox="0 0 435.06 359.783"><path fill="#FFF" d="M188.459 283.255V166.24c0-5.657-1.48-10.092-4.435-13.289-2.955-3.197-5.91-5.409-8.865-6.642 2.707-1.233 5.478-3.577 8.312-7.028 2.828-3.45 4.245-8.75 4.245-15.904V43.874c0-8.623-2.091-15.034-6.279-19.228-4.188-4.188-9.482-6.285-15.887-6.285h-57.641V293.22h36.203V167.242h4.077c1.97 0 3.139.496 3.508 1.48.369.979.553 2.091.553 3.312v112.343c0 4.182.864 7.126 2.586 8.842h35.098v-.737c-.495-1.227-.864-2.581-1.106-4.055-.248-1.479-.369-3.202-.369-5.172zM152.25 131.039c0 3.203-1.354 4.804-4.061 4.804h-4.077V46.069h4.445c1.722 0 2.771.369 3.139 1.106.369.743.553 1.976.553 3.698v80.166zm39.538-79.429h15.882v241.61h35.465V51.61h16.256V18.362h-67.603zm108.236 113.046h21.429v-33.248h-21.429V51.61h24.752V18.362h-60.218V293.22h60.961v-33.248h-25.495z"/><path fill="#E54216" d="M411.032 24.86v22.775c-23.046 85.871-31.701 151.432-31.404 239.089h-23.8c.474-31.663 4.326-71.593 10.966-113.378 7.23-45.493 16.984-88.002 27.465-119.696l2.824-8.538h-36.391v34.567h-16.405V24.86h66.745m6.498-6.498h-79.741v67.815h29.401V51.61h20.899c-22.156 66.997-38.809 174.376-38.809 241.612h36.884c-.794-95.548 9.119-162.041 31.366-244.729V18.362z"/><path fill="#FFF" d="M37.548 18.362L17.53 293.22h35.627l1.851-55.783H66.46l1.561 55.783h36.953L84.933 18.362H37.548zm18.605 187.67l2.982-111.175.138-7.185h2.586l.182 7.091 2.982 111.269h-8.87zM17.53 340.616v-22.732h23.987v5.087H25.676v3.735h14.65v5.119h-14.65v3.639h16.131v5.152H17.53zm50.244-3.027c-1.901 2.383-5.313 3.703-11.528 3.703-5.344 0-8.371-1.256-10.045-3.155-1.546-1.707-1.707-3.478-1.835-4.315l8.017-.193c.064.387.225.998 1.03 1.577.772.581 1.899.999 4.024.999.838 0 1.868-.097 2.64-.482.676-.355 1.289-.999 1.289-1.804 0-.515-.225-1.192-1.289-1.642-.547-.225-1.899-.482-3.478-.772-1.771-.354-3.573-.644-5.344-1.127-1.932-.547-3.703-1.223-4.862-2.994-.838-1.289-.902-2.576-.902-3.155 0-1.224.355-2.35.999-3.349 1.481-2.382 4.636-3.96 10.465-3.96 1.995 0 5.183.258 7.083.902a7.313 7.313 0 0 1 2.222 1.159c2.158 1.578 2.479 3.573 2.64 4.572l-7.953.451c-.096-.258-.161-.515-.29-.741-.515-.869-1.674-1.384-3.735-1.384-.128 0-2.093-.033-3.058.772-.451.354-.515.869-.515 1.095 0 .258.064.676.515 1.03 1.126.902 5.152 1.45 9.207 2.383 2.609.612 3.832 1.287 4.702 2.222.579.579 1.513 1.771 1.513 3.896.001 1.543-.547 3.12-1.512 4.312zm31.633.097c-2.93 2.963-7.663 3.702-11.623 3.702-4.283 0-6.73-.805-8.435-1.61-2.255-1.062-6.601-3.863-6.601-10.529 0-1.19.161-4.121 2.061-6.857 1.996-2.866 5.667-5.474 13.233-5.474 6.182 0 9.692 1.61 11.592 3.703 1.256 1.352 1.738 2.866 1.932 3.476l-7.535 1.321c-.225-.451-.354-.709-.676-1.127-1.223-1.578-3.252-2.222-5.152-2.189-.772 0-3.348.16-5.152 2.061-1.256 1.352-1.771 3.251-1.771 5.055 0 2.415.87 3.863 1.481 4.636 1.771 2.318 4.186 2.382 5.216 2.382 3.027 0 4.831-1.513 5.538-2.446.258-.354.418-.612.708-1.353l7.76.805c-.257.838-.869 2.704-2.576 4.444zm30.702.772c-1.964 1.835-5.247 2.963-11.011 2.963-.548 0-2.737 0-4.733-.257-.772-.097-5.441-.645-7.566-3.864-1.256-1.899-1.192-4.089-1.192-4.829v-14.586h8.114v12.911c0 1.643.128 3.091 1.448 4.283 1.417 1.289 3.381 1.289 3.929 1.289.451 0 2.479-.033 3.832-1.192a3.931 3.931 0 0 0 .966-1.353c.482-1.03.515-2.061.515-3.155v-12.782h8.114v11.913c0 3.089.096 6.309-2.416 8.659zm7.939 2.158v-22.732h23.987v5.087h-15.842v3.735h14.65v5.119h-14.65v3.639h16.131v5.152h-24.276zm28.445 0v-22.732h8.178v17.193h11.623v5.538h-19.801zm41.902 0l-1.223-3.703h-8.694l-1.223 3.703h-8.952l9.821-22.732h9.273l9.852 22.732h-8.854zm-5.602-16.421l-2.609 7.696h5.28l-2.671-7.696zm55.856 12.75c-.387.482-1.192 1.287-2.544 2.061-.482.257-1.513.805-2.897 1.159-1.16.29-1.996.451-4.283.451H234.5v-22.732h12.911c.902 0 1.804.031 2.706.097 5.28.45 7.598 2.672 8.951 4.636 1.932 2.769 1.996 5.667 1.996 6.89 0 1.031-.097 4.734-2.415 7.438zm-7.632-12.428c-1.705-1.289-4.121-1.224-4.668-1.224h-3.896v12.171h4.153a10.9 10.9 0 0 0 1.417-.097c2.801-.354 3.799-1.61 4.347-2.769a7.214 7.214 0 0 0 .741-3.284c0-.708-.097-3.251-2.094-4.797zm14.572 16.099v-22.732h23.987v5.087h-15.842v3.735h14.65v5.119h-14.65v3.639h16.131v5.152h-24.276zm67.798-2.93c-2.93 2.963-7.663 3.702-11.623 3.702-4.283 0-6.73-.805-8.435-1.61-2.255-1.062-6.601-3.863-6.601-10.529 0-1.19.161-4.121 2.061-6.857 1.996-2.866 5.667-5.474 13.233-5.474 6.182 0 9.692 1.61 11.592 3.703 1.256 1.352 1.738 2.866 1.932 3.476l-7.535 1.321c-.225-.451-.354-.709-.676-1.127-1.223-1.578-3.252-2.222-5.152-2.189-.772 0-3.348.16-5.152 2.061-1.256 1.352-1.771 3.251-1.771 5.055 0 2.415.87 3.863 1.481 4.636 1.771 2.318 4.186 2.382 5.216 2.382 3.027 0 4.831-1.513 5.538-2.446.258-.354.418-.612.708-1.353l7.76.805c-.257.838-.869 2.704-2.576 4.444zm6.2 2.93v-22.732h8.147v22.732h-8.147zm32.56 0l-10.787-12.171v12.171h-8.049v-22.732h6.729l10.851 11.977v-11.977h8.017v22.732h-6.761zm12.251 0v-22.732h23.987v5.087h-15.842v3.735h14.65v5.119h-14.65v3.639h16.131v5.152h-24.276z"/></svg>