<svg xmlns="http://www.w3.org/2000/svg" width="350" height="150" viewBox="0 0 350 150"><path d="M33.368 52.41v6.509h6.633v5.108h-6.633V76.51h-7.086V47.425h14.296v4.985h-7.21zm20.972 24.1l-3.955-12.4h-1.154v12.4H42.64V47.425h9.929c3.872 0 5.973.989 6.879 3.172.453 1.112.66 2.719.66 5.026 0 4.531-.825 6.22-3.667 7.579l4.903 13.307H54.34zm-.619-22.699c-.124-.948-.824-1.36-2.349-1.36H49.23v6.674h2.183c1.854 0 2.431-.66 2.431-3.008.001-.782-.04-1.811-.123-2.306zM64.147 76.51V47.425h15.037v5.109h-7.992v6.714h7.539v5.109h-7.539v7.003h7.992v5.149H64.147zm29.911 0l-6.056-18.95v18.95H82.07V47.425h6.963l6.097 18.868V47.425h6.014V76.51h-7.086zm22.578-24.017V76.51h-7.126V52.493h-5.768v-5.068h18.703v5.068h-5.809zm8.407 24.017V47.425h15.037v5.109h-7.992v6.714h7.539v5.109h-7.539v7.003h7.992v5.149h-15.037zm41.53 0l-.989-6.633h-5.396l-1.03 6.633h-6.88l5.891-29.085h9.393l5.891 29.085h-6.88zm-3.626-24.47l-1.977 12.935h3.914l-1.937-12.935zm40.089 22.864c-2.018 1.894-5.108 1.977-7.662 1.977-3.667 0-5.562-.617-6.921-1.771-.289-.205-.906-.741-1.36-1.648-.494-.989-.701-1.937-.701-4.079V55.047c0-2.307.206-4.161 1.937-5.85 1.318-1.318 3.378-2.307 7.291-2.307 5.109 0 7.622 1.69 8.652 3.914.617 1.278.659 2.514.659 3.873v3.502h-6.921v-3.667c0-.412 0-.783-.083-1.194-.288-1.194-1.318-1.36-2.349-1.36-.535 0-.988.041-1.4.329-.906.618-.784 2.142-.784 2.307v14.46c0 1.854.248 2.883 2.349 2.883.083 0 .618 0 1.03-.123 1.236-.453 1.194-1.73 1.194-2.76v-3.626h7.127v2.595c.003 2.473-.08 5.027-2.058 6.881zm17.636 1.606l-.989-6.633h-5.396l-1.03 6.633h-6.88l5.891-29.085h9.393l5.891 29.085h-6.88zm-2.101-31.639h-4.367l3.872-5.85h6.715l-6.22 5.85zm-1.525 7.169l-1.977 12.935h3.914l-1.937-12.935zm34.074 24.47V55.583l-4.49 20.928h-6.18l-4.492-20.928V76.51h-6.137V47.425h9.392l4.327 21.341 4.324-21.341h9.517V76.51h-6.261zm22.787 0l-.989-6.633h-5.396l-1.031 6.633h-6.878l5.889-29.085h9.394l5.889 29.085h-6.878zm-3.626-24.47l-1.978 12.935h3.914l-1.936-12.935zm24.392 24.47l-3.956-12.4h-1.154v12.4h-6.59V47.425h9.928c3.873 0 5.974.989 6.881 3.172.453 1.112.659 2.719.659 5.026 0 4.531-.824 6.22-3.666 7.579l4.903 13.307h-7.005zm-.618-22.699c-.125-.948-.824-1.36-2.349-1.36h-2.143v6.674h2.183c1.855 0 2.431-.66 2.431-3.008.001-.782-.039-1.811-.122-2.306zM316.84 76.51l-.989-6.633h-5.396l-1.031 6.633h-6.878l5.889-29.085h9.394l5.889 29.085h-6.878zm-3.626-24.47l-1.978 12.935h3.914l-1.936-12.935zm-7.558 48.939a.322.322 0 0 0 .312-.312v-.312a.322.322 0 0 0-.312-.312h-5.104c-.055 0-.092-.037-.092-.092v-4.847c0-.055.037-.092.092-.092h4.094a.322.322 0 0 0 .312-.312v-.312a.322.322 0 0 0-.312-.312h-4.094c-.055 0-.092-.037-.092-.092v-4.828c0-.055.037-.092.092-.092h5.104a.322.322 0 0 0 .312-.312v-.312a.322.322 0 0 0-.312-.312h-5.838a.322.322 0 0 0-.312.312v12.227c0 .165.147.312.312.312h5.838zm-9.73 0a.322.322 0 0 0 .312-.312V88.44a.322.322 0 0 0-.312-.312h-.33a.322.322 0 0 0-.312.312v10.721c0 .018-.037.037-.037.018l-5.838-10.777a.54.54 0 0 0-.459-.275h-.459a.322.322 0 0 0-.312.312v12.227c0 .165.147.312.312.312h.33a.322.322 0 0 0 .312-.312V89.945c0-.018.037-.037.037-.018l5.838 10.777a.54.54 0 0 0 .459.275h.459zm-11.327 0a.322.322 0 0 0 .312-.312V88.44a.322.322 0 0 0-.312-.312h-.33a.322.322 0 0 0-.312.312v12.227c0 .165.147.312.312.312h.33zm-4.976 0c.753 0 1.377-.624 1.377-1.377V97.16a.477.477 0 0 0-.294-.441l-.367-.147c-.147-.073-.294.037-.294.184v2.735a.565.565 0 0 1-.551.551h-4.131a.565.565 0 0 1-.551-.551v-9.877c0-.294.257-.551.551-.551h4.131c.294 0 .551.257.551.551v2.552c0 .147.147.257.294.184l.367-.147a.475.475 0 0 0 .294-.44v-2.258c0-.753-.624-1.377-1.377-1.377h-4.388c-.753 0-1.377.624-1.377 1.377v10.097c0 .753.624 1.377 1.34 1.377h4.425zm-14.686-4.131c0 .055-.018.092-.073.092h-4.076c-.037 0-.073-.037-.073-.092l2.093-7.031c0-.037.037-.037.037 0l2.092 7.031zm-2.314-8.72a.437.437 0 0 0-.404.294l-3.635 12.264c-.055.147.073.294.22.294h.404a.437.437 0 0 0 .404-.294l.789-2.717c0-.055.055-.092.11-.092h4.626c.055 0 .11.037.11.092l.808 2.717c.055.165.22.294.404.294h.404c.165 0 .275-.147.22-.294l-3.635-12.264a.437.437 0 0 0-.404-.294h-.421zm-7.801.936c.294 0 .551.257.551.551v4.351a.565.565 0 0 1-.551.551h-4.865c-.055 0-.092-.037-.092-.092v-5.269c0-.055.037-.092.092-.092h4.865zm-5.268 11.915a.322.322 0 0 0 .312-.312v-5.122c0-.055.037-.092.092-.092h2.919c.055 0 .11.037.129.073l2.827 5.177a.54.54 0 0 0 .459.275h.477c.147 0 .239-.147.165-.275l-2.827-5.177c-.018-.037.018-.073.055-.073h.789c.753 0 1.377-.624 1.377-1.377v-4.571c0-.753-.624-1.377-1.377-1.377h-5.728a.322.322 0 0 0-.312.312v12.227c0 .165.147.312.312.312h.331zm-5.049-4.131c0 .055-.018.092-.073.092h-4.076c-.037 0-.073-.037-.073-.092l2.093-7.031c0-.037.037-.037.037 0l2.092 7.031zm-2.313-8.72a.437.437 0 0 0-.404.294l-3.635 12.264c-.055.147.073.294.22.294h.404a.437.437 0 0 0 .404-.294l.789-2.717c0-.055.055-.092.11-.092h4.626c.055 0 .11.037.11.092l.808 2.717c.055.165.22.294.404.294h.404c.165 0 .275-.147.22-.294l-3.635-12.264a.437.437 0 0 0-.404-.294h-.421zm-6.664.936c.294 0 .551.257.551.551v4.369a.565.565 0 0 1-.551.551H230.7c-.055 0-.092-.037-.092-.092v-5.287c0-.055.037-.092.092-.092h4.828zm-5.233 11.915a.322.322 0 0 0 .312-.312v-5.104c0-.055.037-.092.092-.092h4.957c.753 0 1.377-.624 1.377-1.377v-4.59c0-.753-.624-1.377-1.377-1.377h-5.691a.322.322 0 0 0-.312.312v12.227c0 .165.147.312.312.312h.33zm-9.179 0a.322.322 0 0 0 .312-.312V88.44a.322.322 0 0 0-.312-.312h-.33a.322.322 0 0 0-.312.312v10.721c0 .018-.037.037-.037.018l-5.838-10.777a.54.54 0 0 0-.459-.275h-.459a.322.322 0 0 0-.312.312v12.227c0 .165.147.312.312.312h.33a.322.322 0 0 0 .312-.312V89.945c0-.018.037-.037.037-.018l5.838 10.777a.54.54 0 0 0 .459.275h.459zm-13.347-15.274a.312.312 0 0 0 .073-.422l-.257-.367c-.092-.147-.294-.165-.441-.073l-2.093 1.652c-.147.092-.165.294-.073.441l.092.129c.11.147.294.184.441.092l2.258-1.452zm.863 3.359c.294 0 .551.257.551.551v9.877a.565.565 0 0 1-.551.551h-4.424a.565.565 0 0 1-.551-.551v-9.877c0-.294.257-.551.551-.551h4.424zm.129 11.915c.753 0 1.377-.624 1.377-1.377V89.505c0-.753-.624-1.377-1.377-1.377h-4.681c-.753 0-1.377.624-1.377 1.377v10.097c0 .753.624 1.377 1.377 1.377h4.681zm-9.602 0a.322.322 0 0 0 .312-.312V88.44a.322.322 0 0 0-.312-.312h-.33a.322.322 0 0 0-.312.312v12.227c0 .165.147.312.312.312h.33zm-4.975 0c.753 0 1.377-.624 1.377-1.377V97.16a.477.477 0 0 0-.294-.441l-.367-.147c-.147-.073-.294.037-.294.184v2.735a.565.565 0 0 1-.551.551h-4.131a.565.565 0 0 1-.551-.551v-9.877c0-.294.257-.551.551-.551h4.131c.294 0 .551.257.551.551v2.552c0 .147.147.257.294.184l.367-.147a.476.476 0 0 0 .294-.441v-2.258c0-.753-.624-1.377-1.377-1.377h-4.388c-.753 0-1.377.624-1.377 1.377v10.097c0 .753.624 1.377 1.34 1.377h4.425zm-10.134-4.131c0 .055-.018.092-.073.092h-4.076c-.037 0-.073-.037-.073-.092l2.093-7.031c0-.037.037-.037.037 0l2.092 7.031zm-2.313-8.72a.437.437 0 0 0-.404.294l-3.635 12.264c-.055.147.073.294.22.294h.404a.437.437 0 0 0 .404-.294l.789-2.717c0-.055.055-.092.11-.092h4.626c.055 0 .11.037.11.092l.808 2.717c.055.165.22.294.404.294h.404c.165 0 .275-.147.22-.294l-3.635-12.264a.437.437 0 0 0-.404-.294h-.421zm-7.656 12.851c.753 0 1.377-.624 1.377-1.377V88.44a.322.322 0 0 0-.312-.312h-.33a.322.322 0 0 0-.312.312v11.052a.565.565 0 0 1-.551.551h-4.259a.565.565 0 0 1-.551-.551V88.44a.322.322 0 0 0-.312-.312h-.33a.322.322 0 0 0-.312.312v11.162c0 .753.624 1.377 1.377 1.377h4.515zm-12.464-11.915c.055 0 .092.037.092.092v11.511c0 .165.147.312.312.312h.33a.322.322 0 0 0 .312-.312V89.156c0-.055.037-.092.092-.092h2.882a.322.322 0 0 0 .312-.312v-.312a.322.322 0 0 0-.312-.312h-6.884a.322.322 0 0 0-.312.312v.312c0 .165.147.312.312.312h2.864zm-6.499 11.915c.753 0 1.377-.624 1.377-1.377V97.16a.477.477 0 0 0-.294-.441l-.367-.147c-.147-.073-.294.037-.294.184v2.735a.565.565 0 0 1-.551.551h-4.131a.565.565 0 0 1-.551-.551v-9.877c0-.294.257-.551.551-.551h4.131c.294 0 .551.257.551.551v2.552c0 .147.147.257.294.184l.367-.147a.476.476 0 0 0 .294-.441v-2.258c0-.753-.624-1.377-1.377-1.377h-4.388c-.753 0-1.377.624-1.377 1.377v10.097c0 .753.624 1.377 1.34 1.377h4.425zm-10.134-4.131c0 .055-.018.092-.073.092h-4.076c-.037 0-.073-.037-.073-.092l2.093-7.031c0-.037.037-.037.037 0l2.092 7.031zm-2.313-8.72a.437.437 0 0 0-.404.294l-3.635 12.264c-.055.147.073.294.22.294h.404a.437.437 0 0 0 .404-.294l.789-2.717c0-.055.055-.092.11-.092h4.626c.055 0 .11.037.11.092l.808 2.717c.055.165.22.294.404.294h.404c.165 0 .275-.147.22-.294l-3.635-12.264a.437.437 0 0 0-.404-.294h-.421zm-10.501 12.851a.322.322 0 0 0 .312-.312v-.312a.322.322 0 0 0-.312-.312h-5.104c-.055 0-.092-.037-.092-.092v-4.847c0-.055.037-.092.092-.092h4.094a.322.322 0 0 0 .312-.312v-.312a.322.322 0 0 0-.312-.312h-4.094c-.055 0-.092-.037-.092-.092v-4.828c0-.055.037-.092.092-.092h5.104a.322.322 0 0 0 .312-.312v-.312a.322.322 0 0 0-.312-.312h-5.838a.322.322 0 0 0-.312.312v12.227c0 .165.147.312.312.312h5.838zm-10.887-11.915c.294 0 .551.257.551.551v9.877a.565.565 0 0 1-.551.551h-4.792c-.055 0-.092-.037-.092-.092V89.156c0-.055.037-.092.092-.092h4.792zm.129 11.915c.753 0 1.377-.624 1.377-1.377V89.505c0-.753-.624-1.377-1.377-1.377h-5.654a.322.322 0 0 0-.312.312v12.227c0 .165.147.312.312.312h5.654zm-14.926-4.131c0 .055-.018.092-.073.092h-4.076c-.037 0-.073-.037-.073-.092l2.093-7.031c0-.037.037-.037.037 0l2.092 7.031zm-2.313-8.72a.437.437 0 0 0-.404.294l-3.635 12.264c-.055.147.073.294.22.294h.404a.437.437 0 0 0 .404-.294l.789-2.717c0-.055.055-.092.11-.092h4.626c.055 0 .11.037.11.092l.808 2.717c.055.165.22.294.404.294h.404c.165 0 .275-.147.22-.294l-3.635-12.264a.437.437 0 0 0-.404-.294h-.421zm-5.471 12.851a.322.322 0 0 0 .312-.312v-.312a.322.322 0 0 0-.312-.312h-5.104c-.055 0-.092-.037-.092-.092V88.44a.322.322 0 0 0-.312-.312h-.33a.322.322 0 0 0-.312.312v12.227c0 .165.147.312.312.312h5.838zm-9.069 0a.322.322 0 0 0 .312-.312v-.312a.322.322 0 0 0-.312-.312H84.53c-.055 0-.092-.037-.092-.092v-4.847c0-.055.037-.092.092-.092h4.094a.322.322 0 0 0 .312-.312v-.312a.322.322 0 0 0-.312-.312H84.53c-.055 0-.092-.037-.092-.092v-4.828c0-.055.037-.092.092-.092h5.104a.322.322 0 0 0 .312-.312v-.312a.322.322 0 0 0-.312-.312h-5.838a.322.322 0 0 0-.312.312v12.227c0 .165.147.312.312.312h5.837zm-10.775 0c.753 0 1.377-.624 1.377-1.377V88.44a.322.322 0 0 0-.312-.312h-.33a.322.322 0 0 0-.312.312v11.052a.565.565 0 0 1-.551.551h-4.259a.565.565 0 0 1-.551-.551V88.44a.322.322 0 0 0-.312-.312h-.33a.322.322 0 0 0-.312.312v11.162c0 .753.624 1.377 1.377 1.377h4.515zm-10.207 0c.753 0 1.377-.624 1.377-1.377V97.16a.477.477 0 0 0-.294-.441l-.367-.147c-.147-.073-.294.037-.294.184v2.735a.565.565 0 0 1-.551.551h-4.131a.565.565 0 0 1-.551-.551v-9.877c0-.294.257-.551.551-.551h4.131c.294 0 .551.257.551.551v2.552c0 .147.147.257.294.184l.367-.147a.476.476 0 0 0 .294-.441v-2.258c0-.753-.624-1.377-1.377-1.377h-4.388c-.753 0-1.377.624-1.377 1.377v10.097c0 .753.624 1.377 1.34 1.377h4.425zm-9.859-5.287c.055.018.092.055.092.11v3.69a.565.565 0 0 1-.551.551h-3.892a.565.565 0 0 1-.551-.551v-1.909c0-.147-.147-.257-.294-.184l-.367.147a.476.476 0 0 0-.294.441v1.616c0 .753.624 1.377 1.377 1.377h4.149c.753 0 1.377-.624 1.377-1.377v-4.296a.397.397 0 0 0-.294-.386l-5.526-1.487c-.055-.018-.092-.055-.092-.11v-3.708c0-.294.257-.551.551-.551h3.782c.294 0 .551.257.551.551v1.909c0 .147.147.257.294.184l.367-.147a.476.476 0 0 0 .294-.441v-1.616c0-.753-.624-1.377-1.377-1.377H54.35c-.753 0-1.377.624-1.377 1.377v4.314c0 .184.129.349.294.386l5.525 1.487zm-8.61 5.287a.322.322 0 0 0 .312-.312v-.312a.322.322 0 0 0-.312-.312h-5.104c-.055 0-.092-.037-.092-.092v-4.847c0-.055.037-.092.092-.092h4.094a.322.322 0 0 0 .312-.312v-.312a.322.322 0 0 0-.312-.312h-4.094c-.055 0-.092-.037-.092-.092v-4.828c0-.055.037-.092.092-.092h5.104a.322.322 0 0 0 .312-.312v-.312a.322.322 0 0 0-.312-.312h-5.838a.322.322 0 0 0-.312.312v12.227c0 .165.147.312.312.312h5.838z" fill="#FFF"/><path fill="none" d="M0 0h350v150H0z"/></svg>