<svg xmlns="http://www.w3.org/2000/svg" width="350" height="150" viewBox="0 0 350 150"><path fill="none" d="M0 0h350v150H0z"/><g fill="#FFF"><path d="M25.476 95.272h4.423v.747h-5.263v-8.263h5.123v.747h-4.283v2.835h4.003v.747h-4.003v3.187zm14.157-6.185a2.034 2.034 0 0 0-.689-.601c-.28-.151-.619-.227-1.015-.227-.203 0-.409.031-.619.093-.21.063-.401.158-.572.286a1.49 1.49 0 0 0-.414.484 1.43 1.43 0 0 0-.158.689c0 .265.05.483.151.654.101.171.235.317.402.438.167.12.357.22.57.297.213.078.436.156.669.234.287.094.576.195.867.304s.553.251.786.426c.232.175.423.396.57.665.147.269.221.609.221 1.022 0 .412-.079.768-.236 1.067a2.23 2.23 0 0 1-.613.742 2.526 2.526 0 0 1-.861.431c-.323.094-.648.14-.975.14-.249 0-.498-.025-.747-.076a3.362 3.362 0 0 1-.712-.228 2.892 2.892 0 0 1-1.143-.921l.723-.537c.179.296.43.543.753.742.323.198.702.297 1.138.297.21 0 .424-.033.642-.099.218-.066.414-.167.589-.303s.319-.304.432-.502.169-.43.169-.694c0-.287-.057-.527-.169-.717a1.51 1.51 0 0 0-.449-.479 2.752 2.752 0 0 0-.642-.321 24.752 24.752 0 0 0-.759-.257 9.662 9.662 0 0 1-.805-.291 2.722 2.722 0 0 1-.712-.427 2.004 2.004 0 0 1-.508-.647c-.129-.257-.193-.572-.193-.945 0-.397.079-.739.239-1.027.16-.287.368-.525.624-.711.257-.187.541-.323.852-.409.311-.085.619-.129.922-.129.56 0 1.038.099 1.435.298.397.198.696.434.899.706l-.662.533zm13.619 5.59c-.14.21-.309.409-.508.596a3.3 3.3 0 0 1-.688.494 3.857 3.857 0 0 1-.864.338 4.045 4.045 0 0 1-1.033.125 4.505 4.505 0 0 1-1.727-.326A4.084 4.084 0 0 1 47.067 95a4.128 4.128 0 0 1-.893-1.372 4.596 4.596 0 0 1-.321-1.739c0-.63.109-1.21.326-1.739s.519-.986.905-1.371c.385-.386.84-.687 1.365-.905a4.433 4.433 0 0 1 1.71-.326 4.225 4.225 0 0 1 1.716.361c.257.115.49.252.701.413.21.161.385.343.525.545l-.7.514a2.106 2.106 0 0 0-.344-.397 2.373 2.373 0 0 0-.508-.35 3.255 3.255 0 0 0-.636-.245 2.838 2.838 0 0 0-.741-.093c-.537 0-1.017.097-1.441.291a3.241 3.241 0 0 0-1.079.785c-.296.33-.521.711-.677 1.146a4.057 4.057 0 0 0-.233 1.373c0 .481.079.939.239 1.373.16.435.387.816.683 1.146.296.33.655.591 1.079.785.424.195.9.291 1.429.291.475 0 .926-.098 1.354-.292a2.571 2.571 0 0 0 1.074-.934l.652.417zm8.578 1.552c-.623 0-1.132-.107-1.529-.321a2.723 2.723 0 0 1-.946-.812 2.972 2.972 0 0 1-.484-1.067 4.8 4.8 0 0 1-.134-1.092v-5.181h.841v5.089c0 .335.039.659.117.974.077.315.204.595.379.84.175.245.407.444.694.595.288.151.642.228 1.062.228.42 0 .774-.077 1.062-.228.288-.151.519-.35.694-.595s.301-.525.379-.84a4.09 4.09 0 0 0 .116-.974v-5.089h.841v5.181c0 .343-.045.707-.134 1.092-.09.385-.251.741-.484 1.067-.233.327-.55.598-.951.812-.401.215-.909.321-1.523.321zm10.164-.957h4.423v.747h-5.263v-8.263h5.123v.747h-4.283v2.835h4.003v.747h-4.003v3.187zm10.994 0h3.851v.747h-4.691v-8.263h.841v7.516zm9.137.747h-.922l3.571-8.263h.817l3.548 8.263h-.934l-.91-2.17h-4.271l-.899 2.17zm1.214-2.941h3.641l-1.82-4.388-1.821 4.388zm17.891-5.321h2.743a4.87 4.87 0 0 1 1.546.257c.517.171.984.43 1.401.776.416.346.753.778 1.009 1.295.257.518.385 1.119.385 1.803 0 .693-.128 1.295-.385 1.809s-.593.943-1.009 1.289a4.262 4.262 0 0 1-1.401.777 4.901 4.901 0 0 1-1.546.256h-2.743v-8.262zm.84 7.515h1.669c.622 0 1.165-.097 1.628-.291a3.412 3.412 0 0 0 1.15-.764c.303-.315.531-.675.683-1.079a3.522 3.522 0 0 0 0-2.498 3.112 3.112 0 0 0-.683-1.079 3.397 3.397 0 0 0-1.15-.764c-.463-.195-1.005-.291-1.628-.291h-1.669v6.766zm12.919 0h4.423v.747h-5.263v-8.263h5.123v.747h-4.283v2.835h4.003v.747h-4.003v3.187zm93.65-.676h.012l2.766-6.839h1.284v8.263h-.84v-7.178h-.024l-2.988 7.178h-.443l-2.988-7.178h-.023v7.178h-.841v-8.263h1.284l2.801 6.839zm9.429.676h4.423v.747h-5.263v-8.263h5.123v.747h-4.283v2.835h4.003v.747h-4.003v3.187zm8.403-7.515h2.743a4.87 4.87 0 0 1 1.546.257c.518.171.984.43 1.401.776a3.94 3.94 0 0 1 1.009 1.295c.256.518.385 1.119.385 1.803 0 .693-.129 1.295-.385 1.809a3.947 3.947 0 0 1-1.009 1.289 4.273 4.273 0 0 1-1.401.777 4.897 4.897 0 0 1-1.546.256h-2.743v-8.262zm.84 7.515h1.669c.623 0 1.165-.097 1.628-.291a3.407 3.407 0 0 0 1.149-.764 3.12 3.12 0 0 0 .683-1.079 3.547 3.547 0 0 0 0-2.498 3.112 3.112 0 0 0-.683-1.079 3.403 3.403 0 0 0-1.149-.764c-.463-.195-1.005-.291-1.628-.291h-1.669v6.766zm11.169.747h-.841v-8.263h.841v8.263zm4.469 0h-.922l3.57-8.263h.817l3.548 8.263h-.934l-.91-2.17h-4.271l-.898 2.17zm1.214-2.941h3.641l-1.82-4.388-1.821 4.388zm14.39-5.321h2.743a4.87 4.87 0 0 1 1.546.257c.518.171.984.43 1.401.776a3.94 3.94 0 0 1 1.009 1.295c.256.518.385 1.119.385 1.803 0 .693-.129 1.295-.385 1.809a3.947 3.947 0 0 1-1.009 1.289 4.273 4.273 0 0 1-1.401.777 4.897 4.897 0 0 1-1.546.256h-2.743v-8.262zm.84 7.515h1.669c.623 0 1.165-.097 1.628-.291a3.407 3.407 0 0 0 1.149-.764 3.12 3.12 0 0 0 .683-1.079 3.547 3.547 0 0 0 0-2.498 3.112 3.112 0 0 0-.683-1.079 3.403 3.403 0 0 0-1.149-.764c-.463-.195-1.005-.291-1.628-.291h-1.669v6.766zm11.168.747h-.84v-8.263h.84v8.263zm10.796-6.769a2.997 2.997 0 0 0-1.027-.706c-.396-.168-.852-.251-1.365-.251-.529 0-1.005.097-1.429.291a3.23 3.23 0 0 0-1.079.786c-.296.33-.523.712-.683 1.147-.16.436-.239.894-.239 1.375 0 .482.08.94.239 1.375a3.298 3.298 0 0 0 1.762 1.923c.424.194.9.291 1.429.291a5.11 5.11 0 0 0 1.284-.152c.389-.101.704-.23.945-.385v-2.509h-1.925v-.747h2.765v3.732c-.451.274-.938.476-1.459.609s-1.062.199-1.622.199a4.505 4.505 0 0 1-1.727-.326 4.084 4.084 0 0 1-1.365-.904 4.113 4.113 0 0 1-.893-1.372 4.596 4.596 0 0 1-.321-1.739c0-.63.108-1.21.326-1.739.217-.529.519-.986.904-1.371.385-.386.84-.687 1.365-.905a4.433 4.433 0 0 1 1.71-.326c.661 0 1.237.099 1.727.296.49.198.91.472 1.261.824l-.583.584zm5.998 6.769h-.841v-8.263h.841v8.263zm7.177 0h-.84v-7.515h-2.766v-.747h6.372v.747h-2.766v7.515zm5.579 0h-.922l3.571-8.263h.816l3.548 8.263h-.934l-.91-2.17h-4.271l-.898 2.17zm1.214-2.941h3.641l-1.82-4.388-1.821 4.388zm10.188 2.194h3.851v.747h-4.691v-8.263h.84v7.516zM60.623 42.674h7.371c.891 0 1.825.103 2.8.307.976.205 1.867.56 2.674 1.066.807.506 1.469 1.199 1.988 2.078.518.88.777 1.982.777 3.306 0 1.156-.211 2.156-.633 2.999a5.87 5.87 0 0 1-1.698 2.077 7.333 7.333 0 0 1-2.457 1.211 10.54 10.54 0 0 1-2.909.398h-5.529v12.141h-2.385V42.674zm2.385 11.273h5.42c.674 0 1.337-.078 1.988-.235a5.114 5.114 0 0 0 1.734-.759 3.928 3.928 0 0 0 1.228-1.391c.313-.578.47-1.288.47-2.132 0-.819-.162-1.518-.488-2.096a4.375 4.375 0 0 0-1.265-1.427 5.183 5.183 0 0 0-1.788-.813 8.307 8.307 0 0 0-2.024-.253h-5.276v9.106zm18.355-11.273h2.385v23.415h11.924v2.168H81.363V42.674zm25.908 0h2.457l10.768 25.583h-2.674l-2.782-6.793h-13.55l-2.891 6.793h-2.493l11.165-25.583zm1.12 2.602l-5.962 14.02h11.744l-5.782-14.02zm19.007-.434h-8.745v-2.168h19.874v2.168h-8.744v23.415h-2.385V44.842zm20.451-2.168h2.457l10.768 25.583H158.4l-2.782-6.793h-13.55l-2.891 6.793h-2.493l11.165-25.583zm1.121 2.602l-5.962 14.02h11.744l-5.782-14.02zm15.79-2.602h15.321v2.168h-12.936v9.106h12.033v2.168h-12.033v12.141h-2.385V42.674zm18.428 12.791c0-1.951.325-3.745.976-5.384.65-1.638 1.554-3.054 2.71-4.246 1.156-1.193 2.548-2.126 4.174-2.8s3.415-1.012 5.366-1.012c1.951 0 3.74.337 5.366 1.012s3.017 1.608 4.173 2.8c1.156 1.192 2.06 2.608 2.71 4.246.65 1.638.976 3.432.976 5.384 0 1.951-.325 3.752-.976 5.402-.65 1.65-1.554 3.071-2.71 4.264s-2.547 2.12-4.173 2.782-3.415.994-5.366.994c-1.951 0-3.74-.331-5.366-.994s-3.017-1.59-4.174-2.782c-1.156-1.193-2.06-2.614-2.71-4.264-.651-1.649-.976-3.45-.976-5.402zm2.385 0c0 1.59.253 3.071.759 4.444.506 1.373 1.228 2.566 2.168 3.577.939 1.011 2.078 1.807 3.415 2.385 1.337.578 2.837.867 4.499.867 1.662 0 3.162-.289 4.499-.867 1.337-.578 2.475-1.373 3.415-2.385.94-1.012 1.662-2.204 2.168-3.577.506-1.373.759-2.855.759-4.444 0-1.59-.253-3.071-.759-4.444-.506-1.373-1.228-2.566-2.168-3.577-.939-1.012-2.077-1.807-3.415-2.385-1.337-.578-2.837-.867-4.499-.867-1.662 0-3.162.289-4.499.867-1.337.578-2.475 1.373-3.415 2.385s-1.662 2.204-2.168 3.577c-.506 1.373-.759 2.854-.759 4.444zm29.413-12.791h6.721c.337 0 .795.012 1.373.036.578.024 1.204.096 1.879.217.674.121 1.361.313 2.06.578.698.265 1.324.65 1.879 1.156.554.506 1.012 1.145 1.373 1.915.361.771.542 1.711.542 2.819 0 1.228-.212 2.24-.633 3.035-.422.795-.952 1.44-1.59 1.933a6.661 6.661 0 0 1-2.114 1.102c-.771.241-1.505.41-2.204.506l7.444 12.285h-2.711l-7.19-12.141h-4.444v12.141h-2.385V42.674zm2.385 11.273h5.059c1.252 0 2.27-.156 3.054-.47.782-.313 1.391-.698 1.824-1.156.434-.458.729-.952.886-1.482.156-.53.234-1.012.234-1.445 0-.433-.078-.915-.234-1.445-.157-.53-.452-1.024-.886-1.482-.433-.457-1.042-.843-1.824-1.156-.783-.313-1.802-.47-3.054-.47h-5.059v9.106zm18.789-11.273h3.577l9.323 21.464 9.323-21.464h3.396v25.583h-2.385V45.709h-.072l-9.757 22.547h-1.048l-9.901-22.547h-.072v22.547h-2.384V42.674zm40.216 0h2.458l10.768 25.583h-2.673l-2.782-6.793h-13.551l-2.891 6.793h-2.493l11.164-25.583zm1.12 2.602l-5.962 14.02h11.744l-5.782-14.02zM56.931 72.396h235v2h-235zM160.32 96.841c-.652 1.878-3.163 1.84-3.45 1.84a6.623 6.623 0 0 1-1.284-.134c-.997-.191-1.878-.633-2.281-1.61-.192-.498-.192-.92-.192-1.418v-7.361c0-.23.019-.479.038-.709.038-.863.269-1.534.959-2.09.556-.44 1.303-.786 2.799-.786.863 0 1.782.115 2.53.613.364.249.671.594.843.997.211.44.23.709.23 1.533v2.07h-2.454v-1.705c0-1.035-.173-1.591-1.284-1.591-.959 0-1.15.594-1.15 1.477v7.245c0 .882.192 1.534 1.227 1.534 1.112 0 1.208-.633 1.208-1.668v-1.763h2.454v1.917c-.001.535-.02 1.11-.193 1.609zm7.037 1.552l-1.917-6h-.939v6h-2.492V84.86h4.984c1.648 0 2.434.767 2.434 2.415v2.454c0 1.342-.403 1.955-1.591 2.319l2.108 6.345h-2.587zm-.403-10.485c0-.843-.288-1.112-1.15-1.112h-1.303V90.4h1.303c.862 0 1.15-.307 1.15-1.285v-1.207zm10.832 9.872c-.805.747-1.898.9-2.933.9-.997 0-2.013-.134-2.818-.786-.403-.326-.594-.652-.671-.843-.23-.479-.288-1.054-.288-1.553v-7.59c0-.287-.057-1.648.843-2.454.499-.441 1.438-.882 2.952-.882 1.955 0 2.99.805 3.393 1.591.211.441.307.863.307 1.802v7.533c.001.863-.133 1.649-.785 2.282zm-1.725-9.642c0-.077.058-.69-.153-1.092-.115-.249-.403-.594-1.035-.594-.134 0-.499.02-.805.249-.556.383-.479.978-.479 1.534v6.843c0 .403-.019.901.23 1.246.287.402.901.402 1.016.402.115 0 .479-.019.786-.23.46-.326.441-.863.441-1.361v-6.997zm11.35 8.472c-.306 1.092-1.208 2.07-3.508 2.07-.959 0-1.975-.134-2.78-.767a2.29 2.29 0 0 1-.709-.92c-.153-.383-.268-.633-.268-1.399V93.62h2.473v1.572c0 .498-.039 1.073.441 1.38.153.096.383.192.767.192.441 0 .69-.096.863-.25.364-.287.364-.882.364-1.802 0-.173.038-.786-.269-1.246-.192-.287-.479-.46-.575-.536l-2.358-1.591c-.518-.345-.786-.556-1.131-1.112-.287-.479-.479-.996-.479-2.147 0-.192-.019-1.15.326-1.859.766-1.648 3.086-1.648 3.354-1.648.403 0 2.569 0 3.278 1.783.134.344.211.479.211 1.131v1.342h-2.492v-1.38c0-.403-.153-.978-1.112-.978-.575 0-1.112.211-1.112 1.342 0 .058-.038.863.268 1.303.077.116.249.249.518.441l2.415 1.667c.173.116.709.518 1.112 1.055.594.786.537 1.38.537 2.338 0 1.035 0 1.476-.134 1.993zm8.781 0c-.306 1.092-1.208 2.07-3.508 2.07-.959 0-1.975-.134-2.78-.767a2.29 2.29 0 0 1-.709-.92c-.153-.383-.268-.633-.268-1.399V93.62h2.473v1.572c0 .498-.039 1.073.441 1.38.153.096.383.192.767.192.441 0 .69-.096.863-.25.364-.287.364-.882.364-1.802 0-.173.038-.786-.269-1.246-.192-.287-.479-.46-.575-.536l-2.358-1.591c-.518-.345-.786-.556-1.131-1.112-.287-.479-.479-.996-.479-2.147 0-.192-.019-1.15.326-1.859.766-1.648 3.086-1.648 3.354-1.648.403 0 2.569 0 3.278 1.783.134.344.211.479.211 1.131v1.342H193.7v-1.38c0-.403-.153-.978-1.112-.978-.575 0-1.112.211-1.112 1.342 0 .058-.038.863.268 1.303.077.116.25.249.518.441l2.415 1.667c.173.116.709.518 1.112 1.055.594.786.537 1.38.537 2.338 0 1.035 0 1.476-.134 1.993z"/><path d="M150.781 98.396l-12.091 9.065.07.935h1.26l12.242-10zm2.358-16l-12.908-8h16.02l14.23 8h1.538l-14.23-8h30.943l-13.466 8h1.48l13.466-8h17.426l-12.936 8h1.442l14.111-10h-19.559l-.234-.345-.506.345h-33.46l-.213-.137-.088.137h-18.577l14.082 10zm-13.208 8h7v1h-7zm62 0h8v1h-8zm-30.748 8l-11.76 10h1.441l11.76-10zm25.17 0l12.368 8.738.452-1.084-11.282-7.654zm-21.182 0l11.735 10h1.439l-11.735-10z"/></g></svg>