<?xml version="1.0" encoding="utf-8"?>
<!-- Generator: Adobe Illustrator 17.0.0, SVG Export Plug-In . SVG Version: 6.00 Build 0)  -->
<!DOCTYPE svg PUBLIC "-//W3C//DTD SVG 1.1//EN" "http://www.w3.org/Graphics/SVG/1.1/DTD/svg11.dtd">
<svg version="1.1" id="Capa_1" xmlns="http://www.w3.org/2000/svg" xmlns:xlink="http://www.w3.org/1999/xlink" x="0px" y="0px"
	 width="188.224px" height="150px" viewBox="0 0 188.224 150" enable-background="new 0 0 188.224 150" xml:space="preserve">
<g>
	<g>
		<g>
			<g>
				<g>
					<path fill="#FFFFFF" d="M78.913,122.294V68.271c0-2.612-0.683-4.659-2.048-6.135c-1.364-1.476-2.729-2.497-4.093-3.066
						c1.25-0.569,2.529-1.651,3.837-3.244c1.306-1.593,1.96-4.04,1.96-7.343V11.778c0-3.981-0.965-6.941-2.899-8.877
						C73.738,0.968,71.294,0,68.337,0H41.725v126.894h16.714v-58.16h1.882c0.909,0,1.449,0.229,1.619,0.683
						c0.17,0.452,0.255,0.966,0.255,1.529v51.866c0,1.931,0.399,3.29,1.194,4.082h16.204v-0.34
						c-0.229-0.566-0.399-1.191-0.511-1.872C78.969,123.998,78.913,123.203,78.913,122.294z M62.196,52.02
						c0,1.479-0.625,2.218-1.875,2.218h-1.882V12.791h2.052c0.795,0,1.279,0.17,1.449,0.511c0.17,0.343,0.255,0.912,0.255,1.707
						V52.02z"/>
				</g>
				<g>
					<polygon fill="#FFFFFF" points="80.45,15.35 87.782,15.35 87.782,126.894 104.156,126.894 104.156,15.35 111.66,15.35 
						111.66,0 80.45,0 					"/>
				</g>
				<g>
					<polygon fill="#FFFFFF" points="130.419,67.54 140.312,67.54 140.312,52.19 130.419,52.19 130.419,15.35 141.847,15.35 
						141.847,0 114.046,0 114.046,126.894 142.19,126.894 142.19,111.544 130.419,111.544 					"/>
				</g>
				<path fill="#FFFFFF" d="M188.223,0h-36.814v31.308h13.574V15.35h9.649c-10.229,30.93-17.917,80.505-17.917,111.545h17.028
					c-0.367-44.112,4.21-74.81,14.481-112.985V0z"/>
				<g>
					<path fill="#FFFFFF" d="M9.242,0L0,126.894h16.448l0.855-25.753h5.287l0.72,25.753h17.06L31.118,0H9.242z M17.831,86.642
						l1.377-51.326l0.064-3.317h1.194l0.084,3.274l1.377,51.37H17.831z"/>
				</g>
			</g>
		</g>
	</g>
	<g>
		<path fill="#FFFFFF" d="M0.921,149.623v-10.64h11.228v2.382H4.734v1.748h6.857v2.396H4.734v1.703h7.55v2.411H0.921z"/>
		<path fill="#FFFFFF" d="M24.433,148.207c-0.889,1.115-2.486,1.733-5.395,1.733c-2.501,0-3.918-0.588-4.702-1.477
			c-0.723-0.799-0.799-1.628-0.859-2.02l3.753-0.091c0.03,0.181,0.105,0.467,0.482,0.738c0.361,0.272,0.889,0.467,1.884,0.467
			c0.392,0,0.874-0.045,1.236-0.226c0.316-0.166,0.602-0.467,0.602-0.844c0-0.241-0.105-0.558-0.602-0.769
			c-0.257-0.105-0.89-0.226-1.628-0.361c-0.829-0.166-1.673-0.302-2.502-0.528c-0.904-0.257-1.733-0.573-2.276-1.402
			c-0.392-0.603-0.422-1.206-0.422-1.477c0-0.573,0.165-1.1,0.467-1.568c0.693-1.115,2.17-1.853,4.898-1.853
			c0.935,0,2.427,0.121,3.316,0.422c0.377,0.12,0.723,0.301,1.04,0.542c1.01,0.738,1.16,1.673,1.235,2.14l-3.722,0.211
			c-0.045-0.121-0.075-0.241-0.136-0.346c-0.241-0.407-0.783-0.648-1.748-0.648c-0.06,0-0.979-0.015-1.432,0.362
			c-0.211,0.165-0.241,0.407-0.241,0.512c0,0.121,0.03,0.317,0.241,0.482c0.528,0.422,2.411,0.678,4.311,1.115
			c1.221,0.286,1.793,0.603,2.2,1.04c0.272,0.272,0.709,0.829,0.709,1.824C25.142,146.911,24.886,147.649,24.433,148.207z"/>
		<path fill="#FFFFFF" d="M39.235,148.252c-1.372,1.386-3.587,1.732-5.441,1.732c-2.005,0-3.15-0.376-3.949-0.753
			c-1.055-0.497-3.089-1.809-3.089-4.928c0-0.558,0.076-1.929,0.965-3.21c0.934-1.341,2.652-2.562,6.194-2.562
			c2.894,0,4.537,0.754,5.426,1.733c0.588,0.633,0.814,1.341,0.904,1.628l-3.526,0.618c-0.106-0.211-0.166-0.332-0.317-0.528
			c-0.573-0.739-1.522-1.04-2.411-1.025c-0.361,0-1.567,0.076-2.411,0.965c-0.588,0.633-0.829,1.522-0.829,2.366
			c0,1.131,0.407,1.809,0.693,2.17c0.829,1.085,1.959,1.115,2.442,1.115c1.416,0,2.261-0.708,2.592-1.145
			c0.12-0.166,0.196-0.286,0.331-0.633l3.632,0.376C40.319,146.564,40.033,147.438,39.235,148.252z"/>
		<path fill="#FFFFFF" d="M53.599,148.613C52.68,149.473,51.142,150,48.445,150c-0.256,0-1.281,0-2.215-0.121
			c-0.361-0.045-2.547-0.301-3.541-1.808c-0.588-0.89-0.558-1.914-0.558-2.261v-6.827h3.798v6.044c0,0.769,0.06,1.447,0.678,2.004
			c0.663,0.603,1.583,0.603,1.839,0.603c0.211,0,1.16-0.016,1.793-0.558c0.272-0.241,0.407-0.528,0.453-0.633
			c0.226-0.482,0.241-0.965,0.241-1.477v-5.983h3.797v5.576C54.729,146.006,54.774,147.513,53.599,148.613z"/>
		<path fill="#FFFFFF" d="M57.309,149.623v-10.64h11.228v2.382h-7.415v1.748h6.857v2.396h-6.857v1.703h7.55v2.411H57.309z"/>
		<path fill="#FFFFFF" d="M70.618,149.623v-10.64h3.828v8.048h5.441v2.592H70.618z"/>
		<path fill="#FFFFFF" d="M90.226,149.623l-0.573-1.733h-4.069l-0.572,1.733h-4.19l4.596-10.64h4.34l4.612,10.64H90.226z
			 M87.604,141.937l-1.221,3.601h2.471L87.604,141.937z"/>
		<path fill="#FFFFFF" d="M113.739,147.905c-0.181,0.226-0.558,0.603-1.191,0.965c-0.226,0.121-0.709,0.377-1.356,0.543
			c-0.542,0.135-0.934,0.211-2.005,0.211h-6.752v-10.64h6.044c0.421,0,0.844,0.016,1.266,0.045c2.471,0.211,3.557,1.251,4.19,2.17
			c0.904,1.296,0.934,2.652,0.934,3.225C114.869,144.906,114.824,146.639,113.739,147.905z M110.168,142.088
			c-0.799-0.603-1.929-0.573-2.186-0.573h-1.823v5.697h1.944c0.211,0,0.437-0.015,0.663-0.045c1.311-0.165,1.778-0.754,2.034-1.296
			c0.332-0.678,0.346-1.251,0.346-1.537C111.147,144.002,111.102,142.811,110.168,142.088z"/>
		<path fill="#FFFFFF" d="M116.982,149.623v-10.64h11.228v2.382h-7.415v1.748h6.857v2.396h-6.857v1.703h7.55v2.411H116.982z"/>
		<path fill="#FFFFFF" d="M148.708,148.252c-1.372,1.386-3.587,1.732-5.441,1.732c-2.005,0-3.15-0.376-3.949-0.753
			c-1.055-0.497-3.089-1.809-3.089-4.928c0-0.558,0.076-1.929,0.965-3.21c0.934-1.341,2.652-2.562,6.194-2.562
			c2.894,0,4.537,0.754,5.426,1.733c0.588,0.633,0.814,1.341,0.904,1.628l-3.526,0.618c-0.106-0.211-0.166-0.332-0.317-0.528
			c-0.573-0.739-1.522-1.04-2.411-1.025c-0.361,0-1.567,0.076-2.411,0.965c-0.588,0.633-0.829,1.522-0.829,2.366
			c0,1.131,0.407,1.809,0.693,2.17c0.829,1.085,1.959,1.115,2.442,1.115c1.416,0,2.261-0.708,2.592-1.145
			c0.12-0.166,0.196-0.286,0.331-0.633l3.632,0.376C149.793,146.564,149.507,147.438,148.708,148.252z"/>
		<path fill="#FFFFFF" d="M151.604,149.623v-10.64h3.813v10.64H151.604z"/>
		<path fill="#FFFFFF" d="M166.841,149.623l-5.049-5.697v5.697h-3.768v-10.64h3.15l5.079,5.607v-5.607h3.753v10.64H166.841z"/>
		<path fill="#FFFFFF" d="M172.571,149.623v-10.64h11.228v2.382h-7.415v1.748h6.857v2.396h-6.857v1.703h7.55v2.411H172.571z"/>
	</g>
</g>
</svg>
