<?xml version="1.0" encoding="utf-8"?>
<!-- Generator: Adobe Illustrator 17.0.0, SVG Export Plug-In . SVG Version: 6.00 Build 0)  -->
<!DOCTYPE svg PUBLIC "-//W3C//DTD SVG 1.1//EN" "http://www.w3.org/Graphics/SVG/1.1/DTD/svg11.dtd">
<svg version="1.1" id="Capa_1" xmlns="http://www.w3.org/2000/svg" xmlns:xlink="http://www.w3.org/1999/xlink" x="0px" y="0px"
	 width="435.06px" height="359.783px" viewBox="0 0 435.06 359.783" enable-background="new 0 0 435.06 359.783"
	 xml:space="preserve">
<g>
	<g>
		<g>
			<g>
				<g>
					<g>
						<path fill="#FFFFFF" d="M188.459,283.255V166.24c0-5.657-1.48-10.092-4.435-13.289c-2.955-3.197-5.91-5.409-8.865-6.642
							c2.707-1.233,5.478-3.577,8.312-7.028c2.828-3.45,4.245-8.75,4.245-15.904V43.874c0-8.623-2.091-15.034-6.279-19.228
							c-4.188-4.188-9.482-6.285-15.887-6.285h-57.641V293.22h36.203V167.242h4.077c1.97,0,3.139,0.496,3.508,1.48
							c0.369,0.979,0.553,2.091,0.553,3.312v112.343c0,4.182,0.864,7.126,2.586,8.842h35.098v-0.737
							c-0.495-1.227-0.864-2.581-1.106-4.055C188.58,286.948,188.459,285.225,188.459,283.255z M152.25,131.039
							c0,3.203-1.354,4.804-4.061,4.804h-4.077V46.069h4.445c1.722,0,2.771,0.369,3.139,1.106c0.369,0.743,0.553,1.976,0.553,3.698
							V131.039z"/>
					</g>
					<g>
						<polygon fill="#FFFFFF" points="191.788,51.61 207.67,51.61 207.67,293.22 243.135,293.22 243.135,51.61 259.391,51.61 
							259.391,18.362 191.788,18.362 						"/>
					</g>
					<g>
						<polygon fill="#FFFFFF" points="300.024,164.656 321.453,164.656 321.453,131.408 300.024,131.408 300.024,51.61 
							324.776,51.61 324.776,18.362 264.558,18.362 264.558,293.22 325.519,293.22 325.519,259.972 300.024,259.972 						"/>
					</g>
					<g>
						<path fill="#E54216" d="M411.032,24.86v22.775c-23.046,85.871-31.701,151.432-31.404,239.089h-23.8
							c0.474-31.663,4.326-71.593,10.966-113.378c7.23-45.493,16.984-88.002,27.465-119.696l2.824-8.538h-8.993H367.19h-6.498v6.498
							v28.069h-16.405V24.86H411.032 M417.53,18.362h-79.741v67.815h29.401V51.61h20.899
							c-22.156,66.997-38.809,174.376-38.809,241.612h36.884c-0.794-95.548,9.119-162.041,31.366-244.729V18.362L417.53,18.362z"/>
					</g>
					<g>
						<path fill="#FFFFFF" d="M37.548,18.362L17.53,293.22h35.627l1.851-55.783H66.46l1.561,55.783h36.953L84.933,18.362H37.548z
							 M56.153,206.032l2.982-111.175l0.138-7.185h2.586l0.182,7.091l2.982,111.269H56.153z"/>
					</g>
				</g>
			</g>
		</g>
	</g>
	<g>
		<path fill="#FFFFFF" d="M17.53,340.616v-22.732h23.987v5.087H25.676v3.735h14.65v5.119h-14.65v3.639h16.131v5.152H17.53z"/>
		<path fill="#FFFFFF" d="M67.774,337.589c-1.901,2.383-5.313,3.703-11.528,3.703c-5.344,0-8.371-1.256-10.045-3.155
			c-1.546-1.707-1.707-3.478-1.835-4.315l8.017-0.193c0.064,0.387,0.225,0.998,1.03,1.577c0.772,0.581,1.899,0.999,4.024,0.999
			c0.838,0,1.868-0.097,2.64-0.482c0.676-0.355,1.289-0.999,1.289-1.804c0-0.515-0.225-1.192-1.289-1.642
			c-0.547-0.225-1.899-0.482-3.478-0.772c-1.771-0.354-3.573-0.644-5.344-1.127c-1.932-0.547-3.703-1.223-4.862-2.994
			c-0.838-1.289-0.902-2.576-0.902-3.155c0-1.224,0.355-2.35,0.999-3.349c1.481-2.382,4.636-3.96,10.465-3.96
			c1.995,0,5.183,0.258,7.083,0.902c0.805,0.257,1.546,0.644,2.222,1.159c2.158,1.578,2.479,3.573,2.64,4.572l-7.953,0.451
			c-0.096-0.258-0.161-0.515-0.29-0.741c-0.515-0.869-1.674-1.384-3.735-1.384c-0.128,0-2.093-0.033-3.058,0.772
			c-0.451,0.354-0.515,0.869-0.515,1.095c0,0.258,0.064,0.676,0.515,1.03c1.126,0.902,5.152,1.45,9.207,2.383
			c2.609,0.612,3.832,1.287,4.702,2.222c0.579,0.579,1.513,1.771,1.513,3.896C69.287,334.82,68.739,336.397,67.774,337.589z"/>
		<path fill="#FFFFFF" d="M99.407,337.686c-2.93,2.963-7.663,3.702-11.623,3.702c-4.283,0-6.73-0.805-8.435-1.61
			c-2.255-1.062-6.601-3.863-6.601-10.529c0-1.19,0.161-4.121,2.061-6.857c1.996-2.866,5.667-5.474,13.233-5.474
			c6.182,0,9.692,1.61,11.592,3.703c1.256,1.352,1.738,2.866,1.932,3.476l-7.535,1.321c-0.225-0.451-0.354-0.709-0.676-1.127
			c-1.223-1.578-3.252-2.222-5.152-2.189c-0.772,0-3.348,0.16-5.152,2.061c-1.256,1.352-1.771,3.251-1.771,5.055
			c0,2.415,0.87,3.863,1.481,4.636c1.771,2.318,4.186,2.382,5.216,2.382c3.027,0,4.831-1.513,5.538-2.446
			c0.258-0.354,0.418-0.612,0.708-1.353l7.76,0.805C101.726,334.08,101.114,335.946,99.407,337.686z"/>
		<path fill="#FFFFFF" d="M130.109,338.458c-1.964,1.835-5.247,2.963-11.011,2.963c-0.548,0-2.737,0-4.733-0.257
			c-0.772-0.097-5.441-0.645-7.566-3.864c-1.256-1.899-1.192-4.089-1.192-4.829v-14.586h8.114v12.911
			c0,1.643,0.128,3.091,1.448,4.283c1.417,1.289,3.381,1.289,3.929,1.289c0.451,0,2.479-0.033,3.832-1.192
			c0.579-0.515,0.869-1.127,0.966-1.353c0.482-1.03,0.515-2.061,0.515-3.155v-12.782h8.114v11.913
			C132.525,332.888,132.621,336.108,130.109,338.458z"/>
		<path fill="#FFFFFF" d="M138.048,340.616v-22.732h23.987v5.087h-15.842v3.735h14.65v5.119h-14.65v3.639h16.131v5.152H138.048z"/>
		<path fill="#FFFFFF" d="M166.493,340.616v-22.732h8.178v17.193h11.623v5.538H166.493z"/>
		<path fill="#FFFFFF" d="M208.395,340.616l-1.223-3.703h-8.694l-1.223,3.703h-8.952l9.821-22.732h9.273l9.852,22.732H208.395z
			 M202.793,324.195l-2.609,7.696h5.28L202.793,324.195z"/>
		<path fill="#FFFFFF" d="M258.649,336.945c-0.387,0.482-1.192,1.287-2.544,2.061c-0.482,0.257-1.513,0.805-2.897,1.159
			c-1.16,0.29-1.996,0.451-4.283,0.451H234.5v-22.732h12.911c0.902,0,1.804,0.031,2.706,0.097c5.28,0.45,7.598,2.672,8.951,4.636
			c1.932,2.769,1.996,5.667,1.996,6.89C261.064,330.538,260.967,334.241,258.649,336.945z M251.017,324.517
			c-1.705-1.289-4.121-1.224-4.668-1.224h-3.896v12.171h4.153c0.451,0,0.935-0.033,1.417-0.097c2.801-0.354,3.799-1.61,4.347-2.769
			c0.708-1.448,0.741-2.673,0.741-3.284C253.111,328.606,253.014,326.063,251.017,324.517z"/>
		<path fill="#FFFFFF" d="M265.589,340.616v-22.732h23.987v5.087h-15.842v3.735h14.65v5.119h-14.65v3.639h16.131v5.152H265.589z"/>
		<path fill="#FFFFFF" d="M333.387,337.686c-2.93,2.963-7.663,3.702-11.623,3.702c-4.283,0-6.73-0.805-8.435-1.61
			c-2.255-1.062-6.601-3.863-6.601-10.529c0-1.19,0.161-4.121,2.061-6.857c1.996-2.866,5.667-5.474,13.233-5.474
			c6.182,0,9.692,1.61,11.592,3.703c1.256,1.352,1.738,2.866,1.932,3.476l-7.535,1.321c-0.225-0.451-0.354-0.709-0.676-1.127
			c-1.223-1.578-3.252-2.222-5.152-2.189c-0.772,0-3.348,0.16-5.152,2.061c-1.256,1.352-1.771,3.251-1.771,5.055
			c0,2.415,0.87,3.863,1.481,4.636c1.771,2.318,4.186,2.382,5.216,2.382c3.027,0,4.831-1.513,5.538-2.446
			c0.258-0.354,0.418-0.612,0.708-1.353l7.76,0.805C335.706,334.08,335.094,335.946,333.387,337.686z"/>
		<path fill="#FFFFFF" d="M339.587,340.616v-22.732h8.147v22.732H339.587z"/>
		<path fill="#FFFFFF" d="M372.147,340.616l-10.787-12.171v12.171h-8.049v-22.732h6.729l10.851,11.977v-11.977h8.017v22.732H372.147
			z"/>
		<path fill="#FFFFFF" d="M384.398,340.616v-22.732h23.987v5.087h-15.842v3.735h14.65v5.119h-14.65v3.639h16.131v5.152H384.398z"/>
	</g>
</g>
</svg>
