<?xml version="1.0" encoding="utf-8"?>
<!-- Generator: Adobe Illustrator 17.0.0, SVG Export Plug-In . SVG Version: 6.00 Build 0)  -->
<!DOCTYPE svg PUBLIC "-//W3C//DTD SVG 1.1//EN" "http://www.w3.org/Graphics/SVG/1.1/DTD/svg11.dtd">
<svg version="1.1" id="Capa_1" xmlns="http://www.w3.org/2000/svg" xmlns:xlink="http://www.w3.org/1999/xlink" x="0px" y="0px"
	 width="120.247px" height="25px" viewBox="0 0 120.247 25" enable-background="new 0 0 120.247 25" xml:space="preserve">
<g>
	<path fill-rule="evenodd" clip-rule="evenodd" fill="#FFFFFF" d="M29.532,6.57l-9.987,5.894l5.274-8.558
		c-1.524-0.933-3.214-1.425-5.287-1.429C13.989,2.474,9.467,6.881,9.488,12.48c-0.021,5.58,4.51,10.058,10.069,10.058
		c3.619,0,6.799-1.905,8.575-4.775l0.47,1.47C26.153,22.477,21.54,25.005,15.444,25C5.431,24.997-0.003,18.92,0,12.48
		C-0.003,6.021,5.7,0.003,15.444,0C22.276,0,26.645,2.528,29.532,6.57L29.532,6.57z"/>
	<path fill-rule="evenodd" clip-rule="evenodd" fill="#FFFFFF" d="M74.474,24.372h-7.348V9.755c0-1.008-0.818-1.834-1.825-1.834
		c-1.017,0-1.834,0.826-1.834,1.834l0.005,14.617h-7.324V7.921h-4.886L58.3,4.58c0.484-0.187,0.962-0.314,1.511-0.314
		c1.83,0,3.347,1.342,3.618,3.094L69.265,4.6c0.471-0.185,0.979-0.334,1.525-0.334c2.019,0,3.684,1.64,3.684,3.651V24.372
		L74.474,24.372z"/>
	<path fill-rule="evenodd" clip-rule="evenodd" fill="#FFFFFF" d="M49.452,8.768l4.358,15.613h-7.327l-0.95-3.449
		c-1.508,2.157-4.552,3.904-8.298,3.895c-3.358,0.008-7.584-2.622-7.595-6.58c0.011-3.944,4.237-6.526,7.608-6.538
		c2.391,0.012,4.523,0.627,6.27,2.011l-1.636-5.828h-9.508l8.603-3.184C45.314,3.093,48.734,6.1,49.452,8.768L49.452,8.768z
		 M40.878,22.026c2.069,0,3.75-1.677,3.75-3.751c0-2.069-1.681-3.746-3.75-3.746c-2.073,0-3.759,1.678-3.759,3.746
		C37.119,20.349,38.805,22.026,40.878,22.026L40.878,22.026z"/>
	<path fill-rule="evenodd" clip-rule="evenodd" fill="#FFFFFF" d="M76.907,14.629c0-5.721,4.642-10.363,10.371-10.363
		c5.732,0,10.376,4.642,10.376,10.363c0,5.724-4.643,10.36-10.376,10.36C81.549,24.988,76.907,20.353,76.907,14.629L76.907,14.629z
		 M89.706,23.431c1.23-0.356,1.892-1.533,1.565-2.743L87.633,7.355c-0.318-1.18-1.504-1.887-2.755-1.536
		c-1.173,0.327-1.874,1.516-1.533,2.739l3.655,13.328C87.307,23.083,88.513,23.748,89.706,23.431L89.706,23.431z"/>
	<path fill-rule="evenodd" clip-rule="evenodd" fill="#FFFFFF" d="M120.247,24.381h-7.356l0.003-14.621
		c0-1.008-0.817-1.83-1.83-1.83c-1.012,0-1.834,0.822-1.834,1.83l0.004,14.621h-7.322V7.93H97.03l7.034-3.341
		c0.483-0.19,0.97-0.314,1.511-0.314c1.83,0,3.35,1.338,3.618,3.093l5.836-2.763c0.471-0.182,0.979-0.331,1.524-0.331
		c2.028,0,3.693,1.636,3.693,3.647V24.381L120.247,24.381z"/>
</g>
</svg>
