<?xml version="1.0" encoding="utf-8"?>
<!-- Generator: Adobe Illustrator 17.0.0, SVG Export Plug-In . SVG Version: 6.00 Build 0)  -->
<!DOCTYPE svg PUBLIC "-//W3C//DTD SVG 1.1//EN" "http://www.w3.org/Graphics/SVG/1.1/DTD/svg11.dtd">
<svg version="1.1" id="Capa_1" xmlns="http://www.w3.org/2000/svg" xmlns:xlink="http://www.w3.org/1999/xlink" x="0px" y="0px"
	 width="350px" height="150px" viewBox="0 0 350 150" enable-background="new 0 0 350 150" xml:space="preserve">
<g>
	<g>
		<g id="XMLID_3_">
			<g>
				<path fill="#FFFFFF" d="M33.368,52.41v6.509h6.633v5.108h-6.633V76.51h-7.086V47.425h14.296v4.985H33.368z"/>
				<path fill="#FFFFFF" d="M54.34,76.51l-3.955-12.4h-1.154v12.4h-6.591V47.425h9.929c3.872,0,5.973,0.989,6.879,3.172
					c0.453,1.112,0.66,2.719,0.66,5.026c0,4.531-0.825,6.22-3.667,7.579l4.903,13.307H54.34z M53.721,53.811
					c-0.124-0.948-0.824-1.36-2.349-1.36h-2.142v6.674h2.183c1.854,0,2.431-0.66,2.431-3.008
					C53.845,55.335,53.804,54.306,53.721,53.811z"/>
				<path fill="#FFFFFF" d="M64.147,76.51V47.425h15.037v5.109h-7.992v6.714h7.539v5.109h-7.539v7.003h7.992v5.149H64.147z"/>
				<path fill="#FFFFFF" d="M94.058,76.51L88.002,57.56V76.51H82.07V47.425h6.963l6.097,18.868V47.425h6.014V76.51H94.058z"/>
				<path fill="#FFFFFF" d="M116.636,52.493V76.51h-7.126V52.493h-5.768v-5.068h18.703v5.068H116.636z"/>
				<path fill="#FFFFFF" d="M125.043,76.51V47.425h15.037v5.109h-7.992v6.714h7.539v5.109h-7.539v7.003h7.992v5.149H125.043z"/>
				<path fill="#FFFFFF" d="M166.573,76.51l-0.989-6.633h-5.396l-1.03,6.633h-6.88l5.891-29.085h9.393l5.891,29.085H166.573z
					 M162.947,52.04l-1.977,12.935h3.914L162.947,52.04z"/>
				<path fill="#FFFFFF" d="M203.036,74.904c-2.018,1.894-5.108,1.977-7.662,1.977c-3.667,0-5.562-0.617-6.921-1.771
					c-0.289-0.205-0.906-0.741-1.36-1.648c-0.494-0.989-0.701-1.937-0.701-4.079V55.047c0-2.307,0.206-4.161,1.937-5.85
					c1.318-1.318,3.378-2.307,7.291-2.307c5.109,0,7.622,1.69,8.652,3.914c0.617,1.278,0.659,2.514,0.659,3.873v3.502h-6.921v-3.667
					c0-0.412,0-0.783-0.083-1.194c-0.288-1.194-1.318-1.36-2.349-1.36c-0.535,0-0.988,0.041-1.4,0.329
					c-0.906,0.618-0.784,2.142-0.784,2.307v14.46c0,1.854,0.248,2.883,2.349,2.883c0.083,0,0.618,0,1.03-0.123
					c1.236-0.453,1.194-1.73,1.194-2.76v-3.626h7.127v2.595C205.097,70.496,205.014,73.05,203.036,74.904z"/>
				<path fill="#FFFFFF" d="M220.672,76.51l-0.989-6.633h-5.396l-1.03,6.633h-6.88l5.891-29.085h9.393l5.891,29.085H220.672z
					 M218.571,44.871h-4.367l3.872-5.85h6.715L218.571,44.871z M217.046,52.04l-1.977,12.935h3.914L217.046,52.04z"/>
				<path fill="#FFFFFF" d="M251.12,76.51V55.583l-4.49,20.928h-6.18l-4.492-20.928V76.51h-6.137V47.425h9.392l4.327,21.341
					l4.324-21.341h9.517V76.51H251.12z"/>
				<path fill="#FFFFFF" d="M273.907,76.51l-0.989-6.633h-5.396l-1.031,6.633h-6.878l5.889-29.085h9.394l5.889,29.085H273.907z
					 M270.281,52.04l-1.978,12.935h3.914L270.281,52.04z"/>
				<path fill="#FFFFFF" d="M294.673,76.51l-3.956-12.4h-1.154v12.4h-6.59V47.425h9.928c3.873,0,5.974,0.989,6.881,3.172
					c0.453,1.112,0.659,2.719,0.659,5.026c0,4.531-0.824,6.22-3.666,7.579l4.903,13.307H294.673z M294.055,53.811
					c-0.125-0.948-0.824-1.36-2.349-1.36h-2.143v6.674h2.183c1.855,0,2.431-0.66,2.431-3.008
					C294.178,55.335,294.138,54.306,294.055,53.811z"/>
				<path fill="#FFFFFF" d="M316.84,76.51l-0.989-6.633h-5.396l-1.031,6.633h-6.878l5.889-29.085h9.394l5.889,29.085H316.84z
					 M313.214,52.04l-1.978,12.935h3.914L313.214,52.04z"/>
			</g>
		</g>
		<path fill="#FFFFFF" d="M305.656,100.979c0.165,0,0.312-0.147,0.312-0.312v-0.312c0-0.165-0.147-0.312-0.312-0.312h-5.104
			c-0.055,0-0.092-0.037-0.092-0.092v-4.847c0-0.055,0.037-0.092,0.092-0.092h4.094c0.165,0,0.312-0.147,0.312-0.312v-0.312
			c0-0.165-0.147-0.312-0.312-0.312h-4.094c-0.055,0-0.092-0.037-0.092-0.092v-4.828c0-0.055,0.037-0.092,0.092-0.092h5.104
			c0.165,0,0.312-0.147,0.312-0.312V88.44c0-0.165-0.147-0.312-0.312-0.312h-5.838c-0.165,0-0.312,0.147-0.312,0.312v12.227
			c0,0.165,0.147,0.312,0.312,0.312H305.656z M295.926,100.979c0.165,0,0.312-0.147,0.312-0.312V88.44
			c0-0.165-0.147-0.312-0.312-0.312h-0.33c-0.165,0-0.312,0.147-0.312,0.312v10.721c0,0.018-0.037,0.037-0.037,0.018l-5.838-10.777
			c-0.092-0.165-0.275-0.275-0.459-0.275h-0.459c-0.165,0-0.312,0.147-0.312,0.312v12.227c0,0.165,0.147,0.312,0.312,0.312h0.33
			c0.165,0,0.312-0.147,0.312-0.312V89.945c0-0.018,0.037-0.037,0.037-0.018l5.838,10.777c0.092,0.165,0.275,0.275,0.459,0.275
			H295.926z M284.599,100.979c0.165,0,0.312-0.147,0.312-0.312V88.44c0-0.165-0.147-0.312-0.312-0.312h-0.33
			c-0.165,0-0.312,0.147-0.312,0.312v12.227c0,0.165,0.147,0.312,0.312,0.312H284.599z M279.623,100.979
			c0.753,0,1.377-0.624,1.377-1.377V97.16c0-0.184-0.11-0.367-0.294-0.441l-0.367-0.147c-0.147-0.073-0.294,0.037-0.294,0.184v2.735
			c0,0.294-0.257,0.551-0.551,0.551h-4.131c-0.294,0-0.551-0.257-0.551-0.551v-9.877c0-0.294,0.257-0.551,0.551-0.551h4.131
			c0.294,0,0.551,0.257,0.551,0.551v2.552c0,0.147,0.147,0.257,0.294,0.184l0.367-0.147C280.89,92.13,281,91.947,281,91.763v-2.258
			c0-0.753-0.624-1.377-1.377-1.377h-4.388c-0.753,0-1.377,0.624-1.377,1.377v10.097c0,0.753,0.624,1.377,1.34,1.377H279.623z
			 M264.937,96.848c0,0.055-0.018,0.092-0.073,0.092h-4.076c-0.037,0-0.073-0.037-0.073-0.092l2.093-7.031
			c0-0.037,0.037-0.037,0.037,0L264.937,96.848z M262.623,88.128c-0.184,0-0.349,0.129-0.404,0.294l-3.635,12.264
			c-0.055,0.147,0.073,0.294,0.22,0.294h0.404c0.184,0,0.349-0.129,0.404-0.294l0.789-2.717c0-0.055,0.055-0.092,0.11-0.092h4.626
			c0.055,0,0.11,0.037,0.11,0.092l0.808,2.717c0.055,0.165,0.22,0.294,0.404,0.294h0.404c0.165,0,0.275-0.147,0.22-0.294
			l-3.635-12.264c-0.055-0.165-0.22-0.294-0.404-0.294H262.623z M254.822,89.064c0.294,0,0.551,0.257,0.551,0.551v4.351
			c0,0.294-0.257,0.551-0.551,0.551h-4.865c-0.055,0-0.092-0.037-0.092-0.092v-5.269c0-0.055,0.037-0.092,0.092-0.092H254.822z
			 M249.554,100.979c0.165,0,0.312-0.147,0.312-0.312v-5.122c0-0.055,0.037-0.092,0.092-0.092h2.919c0.055,0,0.11,0.037,0.129,0.073
			l2.827,5.177c0.092,0.165,0.275,0.275,0.459,0.275h0.477c0.147,0,0.239-0.147,0.165-0.275l-2.827-5.177
			c-0.018-0.037,0.018-0.073,0.055-0.073h0.789c0.753,0,1.377-0.624,1.377-1.377v-4.571c0-0.753-0.624-1.377-1.377-1.377h-5.728
			c-0.165,0-0.312,0.147-0.312,0.312v12.227c0,0.165,0.147,0.312,0.312,0.312H249.554z M244.505,96.848
			c0,0.055-0.018,0.092-0.073,0.092h-4.076c-0.037,0-0.073-0.037-0.073-0.092l2.093-7.031c0-0.037,0.037-0.037,0.037,0
			L244.505,96.848z M242.192,88.128c-0.184,0-0.349,0.129-0.404,0.294l-3.635,12.264c-0.055,0.147,0.073,0.294,0.22,0.294h0.404
			c0.184,0,0.349-0.129,0.404-0.294l0.789-2.717c0-0.055,0.055-0.092,0.11-0.092h4.626c0.055,0,0.11,0.037,0.11,0.092l0.808,2.717
			c0.055,0.165,0.22,0.294,0.404,0.294h0.404c0.165,0,0.275-0.147,0.22-0.294l-3.635-12.264c-0.055-0.165-0.22-0.294-0.404-0.294
			H242.192z M235.528,89.064c0.294,0,0.551,0.257,0.551,0.551v4.369c0,0.294-0.257,0.551-0.551,0.551h-4.828
			c-0.055,0-0.092-0.037-0.092-0.092v-5.287c0-0.055,0.037-0.092,0.092-0.092H235.528z M230.295,100.979
			c0.165,0,0.312-0.147,0.312-0.312v-5.104c0-0.055,0.037-0.092,0.092-0.092h4.957c0.753,0,1.377-0.624,1.377-1.377v-4.59
			c0-0.753-0.624-1.377-1.377-1.377h-5.691c-0.165,0-0.312,0.147-0.312,0.312v12.227c0,0.165,0.147,0.312,0.312,0.312H230.295z
			 M221.116,100.979c0.165,0,0.312-0.147,0.312-0.312V88.44c0-0.165-0.147-0.312-0.312-0.312h-0.33
			c-0.165,0-0.312,0.147-0.312,0.312v10.721c0,0.018-0.037,0.037-0.037,0.018l-5.838-10.777c-0.092-0.165-0.275-0.275-0.459-0.275
			h-0.459c-0.165,0-0.312,0.147-0.312,0.312v12.227c0,0.165,0.147,0.312,0.312,0.312h0.33c0.165,0,0.312-0.147,0.312-0.312V89.945
			c0-0.018,0.037-0.037,0.037-0.018l5.838,10.777c0.092,0.165,0.275,0.275,0.459,0.275H221.116z M207.769,85.705
			c0.129-0.092,0.165-0.275,0.073-0.422l-0.257-0.367c-0.092-0.147-0.294-0.165-0.441-0.073l-2.093,1.652
			c-0.147,0.092-0.165,0.294-0.073,0.441l0.092,0.129c0.11,0.147,0.294,0.184,0.441,0.092L207.769,85.705z M208.632,89.064
			c0.294,0,0.551,0.257,0.551,0.551v9.877c0,0.294-0.257,0.551-0.551,0.551h-4.424c-0.294,0-0.551-0.257-0.551-0.551v-9.877
			c0-0.294,0.257-0.551,0.551-0.551H208.632z M208.761,100.979c0.753,0,1.377-0.624,1.377-1.377V89.505
			c0-0.753-0.624-1.377-1.377-1.377h-4.681c-0.753,0-1.377,0.624-1.377,1.377v10.097c0,0.753,0.624,1.377,1.377,1.377H208.761z
			 M199.159,100.979c0.165,0,0.312-0.147,0.312-0.312V88.44c0-0.165-0.147-0.312-0.312-0.312h-0.33
			c-0.165,0-0.312,0.147-0.312,0.312v12.227c0,0.165,0.147,0.312,0.312,0.312H199.159z M194.184,100.979
			c0.753,0,1.377-0.624,1.377-1.377V97.16c0-0.184-0.11-0.367-0.294-0.441l-0.367-0.147c-0.147-0.073-0.294,0.037-0.294,0.184v2.735
			c0,0.294-0.257,0.551-0.551,0.551h-4.131c-0.294,0-0.551-0.257-0.551-0.551v-9.877c0-0.294,0.257-0.551,0.551-0.551h4.131
			c0.294,0,0.551,0.257,0.551,0.551v2.552c0,0.147,0.147,0.257,0.294,0.184l0.367-0.147c0.184-0.073,0.294-0.257,0.294-0.441v-2.258
			c0-0.753-0.624-1.377-1.377-1.377h-4.388c-0.753,0-1.377,0.624-1.377,1.377v10.097c0,0.753,0.624,1.377,1.34,1.377H194.184z
			 M184.05,96.848c0,0.055-0.018,0.092-0.073,0.092h-4.076c-0.037,0-0.073-0.037-0.073-0.092l2.093-7.031
			c0-0.037,0.037-0.037,0.037,0L184.05,96.848z M181.737,88.128c-0.184,0-0.349,0.129-0.404,0.294l-3.635,12.264
			c-0.055,0.147,0.073,0.294,0.22,0.294h0.404c0.184,0,0.349-0.129,0.404-0.294l0.789-2.717c0-0.055,0.055-0.092,0.11-0.092h4.626
			c0.055,0,0.11,0.037,0.11,0.092l0.808,2.717c0.055,0.165,0.22,0.294,0.404,0.294h0.404c0.165,0,0.275-0.147,0.22-0.294
			l-3.635-12.264c-0.055-0.165-0.22-0.294-0.404-0.294H181.737z M174.081,100.979c0.753,0,1.377-0.624,1.377-1.377V88.44
			c0-0.165-0.147-0.312-0.312-0.312h-0.33c-0.165,0-0.312,0.147-0.312,0.312v11.052c0,0.294-0.257,0.551-0.551,0.551h-4.259
			c-0.294,0-0.551-0.257-0.551-0.551V88.44c0-0.165-0.147-0.312-0.312-0.312h-0.33c-0.165,0-0.312,0.147-0.312,0.312v11.162
			c0,0.753,0.624,1.377,1.377,1.377H174.081z M161.617,89.064c0.055,0,0.092,0.037,0.092,0.092v11.511
			c0,0.165,0.147,0.312,0.312,0.312h0.33c0.165,0,0.312-0.147,0.312-0.312V89.156c0-0.055,0.037-0.092,0.092-0.092h2.882
			c0.165,0,0.312-0.147,0.312-0.312V88.44c0-0.165-0.147-0.312-0.312-0.312h-6.884c-0.165,0-0.312,0.147-0.312,0.312v0.312
			c0,0.165,0.147,0.312,0.312,0.312H161.617z M155.118,100.979c0.753,0,1.377-0.624,1.377-1.377V97.16
			c0-0.184-0.11-0.367-0.294-0.441l-0.367-0.147c-0.147-0.073-0.294,0.037-0.294,0.184v2.735c0,0.294-0.257,0.551-0.551,0.551
			h-4.131c-0.294,0-0.551-0.257-0.551-0.551v-9.877c0-0.294,0.257-0.551,0.551-0.551h4.131c0.294,0,0.551,0.257,0.551,0.551v2.552
			c0,0.147,0.147,0.257,0.294,0.184l0.367-0.147c0.184-0.073,0.294-0.257,0.294-0.441v-2.258c0-0.753-0.624-1.377-1.377-1.377
			h-4.388c-0.753,0-1.377,0.624-1.377,1.377v10.097c0,0.753,0.624,1.377,1.34,1.377H155.118z M144.984,96.848
			c0,0.055-0.018,0.092-0.073,0.092h-4.076c-0.037,0-0.073-0.037-0.073-0.092l2.093-7.031c0-0.037,0.037-0.037,0.037,0
			L144.984,96.848z M142.671,88.128c-0.184,0-0.349,0.129-0.404,0.294l-3.635,12.264c-0.055,0.147,0.073,0.294,0.22,0.294h0.404
			c0.184,0,0.349-0.129,0.404-0.294l0.789-2.717c0-0.055,0.055-0.092,0.11-0.092h4.626c0.055,0,0.11,0.037,0.11,0.092l0.808,2.717
			c0.055,0.165,0.22,0.294,0.404,0.294h0.404c0.165,0,0.275-0.147,0.22-0.294l-3.635-12.264c-0.055-0.165-0.22-0.294-0.404-0.294
			H142.671z M132.17,100.979c0.165,0,0.312-0.147,0.312-0.312v-0.312c0-0.165-0.147-0.312-0.312-0.312h-5.104
			c-0.055,0-0.092-0.037-0.092-0.092v-4.847c0-0.055,0.037-0.092,0.092-0.092h4.094c0.165,0,0.312-0.147,0.312-0.312v-0.312
			c0-0.165-0.147-0.312-0.312-0.312h-4.094c-0.055,0-0.092-0.037-0.092-0.092v-4.828c0-0.055,0.037-0.092,0.092-0.092h5.104
			c0.165,0,0.312-0.147,0.312-0.312V88.44c0-0.165-0.147-0.312-0.312-0.312h-5.838c-0.165,0-0.312,0.147-0.312,0.312v12.227
			c0,0.165,0.147,0.312,0.312,0.312H132.17z M121.283,89.064c0.294,0,0.551,0.257,0.551,0.551v9.877
			c0,0.294-0.257,0.551-0.551,0.551h-4.792c-0.055,0-0.092-0.037-0.092-0.092V89.156c0-0.055,0.037-0.092,0.092-0.092H121.283z
			 M121.412,100.979c0.753,0,1.377-0.624,1.377-1.377V89.505c0-0.753-0.624-1.377-1.377-1.377h-5.654
			c-0.165,0-0.312,0.147-0.312,0.312v12.227c0,0.165,0.147,0.312,0.312,0.312H121.412z M106.486,96.848
			c0,0.055-0.018,0.092-0.073,0.092h-4.076c-0.037,0-0.073-0.037-0.073-0.092l2.093-7.031c0-0.037,0.037-0.037,0.037,0
			L106.486,96.848z M104.173,88.128c-0.184,0-0.349,0.129-0.404,0.294l-3.635,12.264c-0.055,0.147,0.073,0.294,0.22,0.294h0.404
			c0.184,0,0.349-0.129,0.404-0.294l0.789-2.717c0-0.055,0.055-0.092,0.11-0.092h4.626c0.055,0,0.11,0.037,0.11,0.092l0.808,2.717
			c0.055,0.165,0.22,0.294,0.404,0.294h0.404c0.165,0,0.275-0.147,0.22-0.294l-3.635-12.264c-0.055-0.165-0.22-0.294-0.404-0.294
			H104.173z M98.702,100.979c0.165,0,0.312-0.147,0.312-0.312v-0.312c0-0.165-0.147-0.312-0.312-0.312h-5.104
			c-0.055,0-0.092-0.037-0.092-0.092V88.44c0-0.165-0.147-0.312-0.312-0.312h-0.33c-0.165,0-0.312,0.147-0.312,0.312v12.227
			c0,0.165,0.147,0.312,0.312,0.312H98.702z M89.633,100.979c0.165,0,0.312-0.147,0.312-0.312v-0.312
			c0-0.165-0.147-0.312-0.312-0.312H84.53c-0.055,0-0.092-0.037-0.092-0.092v-4.847c0-0.055,0.037-0.092,0.092-0.092h4.094
			c0.165,0,0.312-0.147,0.312-0.312v-0.312c0-0.165-0.147-0.312-0.312-0.312H84.53c-0.055,0-0.092-0.037-0.092-0.092v-4.828
			c0-0.055,0.037-0.092,0.092-0.092h5.104c0.165,0,0.312-0.147,0.312-0.312V88.44c0-0.165-0.147-0.312-0.312-0.312h-5.838
			c-0.165,0-0.312,0.147-0.312,0.312v12.227c0,0.165,0.147,0.312,0.312,0.312H89.633z M78.858,100.979
			c0.753,0,1.377-0.624,1.377-1.377V88.44c0-0.165-0.147-0.312-0.312-0.312h-0.33c-0.165,0-0.312,0.147-0.312,0.312v11.052
			c0,0.294-0.257,0.551-0.551,0.551h-4.259c-0.294,0-0.551-0.257-0.551-0.551V88.44c0-0.165-0.147-0.312-0.312-0.312h-0.33
			c-0.165,0-0.312,0.147-0.312,0.312v11.162c0,0.753,0.624,1.377,1.377,1.377H78.858z M68.651,100.979
			c0.753,0,1.377-0.624,1.377-1.377V97.16c0-0.184-0.11-0.367-0.294-0.441l-0.367-0.147c-0.147-0.073-0.294,0.037-0.294,0.184v2.735
			c0,0.294-0.257,0.551-0.551,0.551h-4.131c-0.294,0-0.551-0.257-0.551-0.551v-9.877c0-0.294,0.257-0.551,0.551-0.551h4.131
			c0.294,0,0.551,0.257,0.551,0.551v2.552c0,0.147,0.147,0.257,0.294,0.184l0.367-0.147c0.184-0.073,0.294-0.257,0.294-0.441v-2.258
			c0-0.753-0.624-1.377-1.377-1.377h-4.388c-0.753,0-1.377,0.624-1.377,1.377v10.097c0,0.753,0.624,1.377,1.34,1.377H68.651z
			 M58.792,95.692c0.055,0.018,0.092,0.055,0.092,0.11v3.69c0,0.294-0.257,0.551-0.551,0.551h-3.892
			c-0.294,0-0.551-0.257-0.551-0.551v-1.909c0-0.147-0.147-0.257-0.294-0.184l-0.367,0.147c-0.184,0.073-0.294,0.257-0.294,0.441
			v1.616c0,0.753,0.624,1.377,1.377,1.377h4.149c0.753,0,1.377-0.624,1.377-1.377v-4.296c0-0.184-0.129-0.349-0.294-0.386
			l-5.526-1.487c-0.055-0.018-0.092-0.055-0.092-0.11v-3.708c0-0.294,0.257-0.551,0.551-0.551h3.782
			c0.294,0,0.551,0.257,0.551,0.551v1.909c0,0.147,0.147,0.257,0.294,0.184l0.367-0.147c0.184-0.073,0.294-0.257,0.294-0.441v-1.616
			c0-0.753-0.624-1.377-1.377-1.377H54.35c-0.753,0-1.377,0.624-1.377,1.377v4.314c0,0.184,0.129,0.349,0.294,0.386L58.792,95.692z
			 M50.182,100.979c0.165,0,0.312-0.147,0.312-0.312v-0.312c0-0.165-0.147-0.312-0.312-0.312h-5.104
			c-0.055,0-0.092-0.037-0.092-0.092v-4.847c0-0.055,0.037-0.092,0.092-0.092h4.094c0.165,0,0.312-0.147,0.312-0.312v-0.312
			c0-0.165-0.147-0.312-0.312-0.312h-4.094c-0.055,0-0.092-0.037-0.092-0.092v-4.828c0-0.055,0.037-0.092,0.092-0.092h5.104
			c0.165,0,0.312-0.147,0.312-0.312V88.44c0-0.165-0.147-0.312-0.312-0.312h-5.838c-0.165,0-0.312,0.147-0.312,0.312v12.227
			c0,0.165,0.147,0.312,0.312,0.312H50.182z"/>
	</g>
	<rect x="0" y="0" fill="none" width="350" height="150"/>
</g>
</svg>
