<?xml version="1.0" encoding="utf-8"?>
<!-- Generator: Adobe Illustrator 17.0.0, SVG Export Plug-In . SVG Version: 6.00 Build 0)  -->
<!DOCTYPE svg PUBLIC "-//W3C//DTD SVG 1.1//EN" "http://www.w3.org/Graphics/SVG/1.1/DTD/svg11.dtd">
<svg version="1.1" id="Capa_1" xmlns="http://www.w3.org/2000/svg" xmlns:xlink="http://www.w3.org/1999/xlink" x="0px" y="0px"
	 width="350px" height="150px" viewBox="0 0 350 150" enable-background="new 0 0 350 150" xml:space="preserve">
<g>
	<rect x="0" y="0" fill="none" width="350" height="150"/>
	<g>
		<path fill="#FFFFFF" d="M25.476,95.272h4.423v0.747h-5.263v-8.263h5.123v0.747h-4.283v2.835h4.003v0.747h-4.003V95.272z"/>
		<path fill="#FFFFFF" d="M39.633,89.087c-0.179-0.248-0.409-0.449-0.689-0.601c-0.28-0.151-0.619-0.227-1.015-0.227
			c-0.203,0-0.409,0.031-0.619,0.093c-0.21,0.063-0.401,0.158-0.572,0.286c-0.171,0.129-0.309,0.291-0.414,0.484
			c-0.105,0.195-0.158,0.424-0.158,0.689c0,0.265,0.05,0.483,0.151,0.654c0.101,0.171,0.235,0.317,0.402,0.438
			c0.167,0.12,0.357,0.22,0.57,0.297c0.213,0.078,0.436,0.156,0.669,0.234c0.287,0.094,0.576,0.195,0.867,0.304
			s0.553,0.251,0.786,0.426c0.232,0.175,0.423,0.396,0.57,0.665c0.147,0.269,0.221,0.609,0.221,1.022
			c0,0.412-0.079,0.768-0.236,1.067c-0.157,0.3-0.361,0.547-0.613,0.742c-0.251,0.195-0.538,0.338-0.861,0.431
			c-0.323,0.094-0.648,0.14-0.975,0.14c-0.249,0-0.498-0.025-0.747-0.076c-0.249-0.05-0.486-0.127-0.712-0.228
			c-0.225-0.101-0.436-0.229-0.63-0.385c-0.195-0.155-0.366-0.335-0.513-0.536l0.723-0.537c0.179,0.296,0.43,0.543,0.753,0.742
			c0.323,0.198,0.702,0.297,1.138,0.297c0.21,0,0.424-0.033,0.642-0.099c0.218-0.066,0.414-0.167,0.589-0.303
			s0.319-0.304,0.432-0.502s0.169-0.43,0.169-0.694c0-0.287-0.057-0.527-0.169-0.717c-0.113-0.191-0.263-0.351-0.449-0.479
			c-0.187-0.129-0.401-0.235-0.642-0.321c-0.241-0.086-0.494-0.172-0.759-0.257c-0.272-0.085-0.541-0.182-0.805-0.291
			c-0.265-0.109-0.502-0.252-0.712-0.427c-0.21-0.175-0.379-0.391-0.508-0.647c-0.129-0.257-0.193-0.572-0.193-0.945
			c0-0.397,0.079-0.739,0.239-1.027c0.16-0.287,0.368-0.525,0.624-0.711c0.257-0.187,0.541-0.323,0.852-0.409
			c0.311-0.085,0.619-0.129,0.922-0.129c0.56,0,1.038,0.099,1.435,0.298c0.397,0.198,0.696,0.434,0.899,0.706L39.633,89.087z"/>
		<path fill="#FFFFFF" d="M53.252,94.677c-0.14,0.21-0.309,0.409-0.508,0.596c-0.198,0.187-0.428,0.352-0.688,0.494
			c-0.261,0.142-0.549,0.255-0.864,0.338c-0.315,0.083-0.659,0.125-1.033,0.125c-0.623,0-1.198-0.109-1.727-0.326
			c-0.529-0.218-0.984-0.519-1.365-0.904c-0.381-0.385-0.679-0.843-0.893-1.372c-0.214-0.529-0.321-1.109-0.321-1.739
			c0-0.63,0.109-1.21,0.326-1.739s0.519-0.986,0.905-1.371c0.385-0.386,0.84-0.687,1.365-0.905c0.525-0.217,1.095-0.326,1.71-0.326
			c0.303,0,0.601,0.032,0.893,0.095c0.292,0.063,0.566,0.152,0.823,0.266c0.257,0.115,0.49,0.252,0.701,0.413
			c0.21,0.161,0.385,0.343,0.525,0.545l-0.7,0.514c-0.086-0.133-0.201-0.265-0.344-0.397c-0.144-0.132-0.313-0.248-0.508-0.35
			c-0.195-0.101-0.407-0.182-0.636-0.245c-0.23-0.062-0.477-0.093-0.741-0.093c-0.537,0-1.017,0.097-1.441,0.291
			c-0.424,0.194-0.784,0.456-1.079,0.785c-0.296,0.33-0.521,0.711-0.677,1.146c-0.155,0.435-0.233,0.892-0.233,1.373
			c0,0.481,0.079,0.939,0.239,1.373c0.16,0.435,0.387,0.816,0.683,1.146c0.296,0.33,0.655,0.591,1.079,0.785
			c0.424,0.195,0.9,0.291,1.429,0.291c0.475,0,0.926-0.098,1.354-0.292c0.428-0.195,0.786-0.506,1.074-0.934L53.252,94.677z"/>
		<path fill="#FFFFFF" d="M61.83,96.229c-0.623,0-1.132-0.107-1.529-0.321c-0.397-0.214-0.712-0.484-0.946-0.812
			c-0.233-0.326-0.395-0.682-0.484-1.067c-0.09-0.385-0.134-0.749-0.134-1.092v-5.181h0.841v5.089c0,0.335,0.039,0.659,0.117,0.974
			c0.077,0.315,0.204,0.595,0.379,0.84c0.175,0.245,0.407,0.444,0.694,0.595c0.288,0.151,0.642,0.228,1.062,0.228
			c0.42,0,0.774-0.077,1.062-0.228c0.288-0.151,0.519-0.35,0.694-0.595s0.301-0.525,0.379-0.84c0.077-0.315,0.116-0.64,0.116-0.974
			v-5.089h0.841v5.181c0,0.343-0.045,0.707-0.134,1.092c-0.09,0.385-0.251,0.741-0.484,1.067c-0.233,0.327-0.55,0.598-0.951,0.812
			C62.952,96.123,62.444,96.229,61.83,96.229z"/>
		<path fill="#FFFFFF" d="M71.994,95.272h4.423v0.747h-5.263v-8.263h5.123v0.747h-4.283v2.835h4.003v0.747h-4.003V95.272z"/>
		<path fill="#FFFFFF" d="M82.988,95.272h3.851v0.747h-4.691v-8.263h0.841V95.272z"/>
		<path fill="#FFFFFF" d="M92.125,96.019h-0.922l3.571-8.263h0.817l3.548,8.263h-0.934l-0.91-2.17h-4.271L92.125,96.019z
			 M93.339,93.078h3.641l-1.82-4.388L93.339,93.078z"/>
		<path fill="#FFFFFF" d="M111.23,87.757h2.743c0.514,0,1.029,0.085,1.546,0.257c0.517,0.171,0.984,0.43,1.401,0.776
			c0.416,0.346,0.753,0.778,1.009,1.295c0.257,0.518,0.385,1.119,0.385,1.803c0,0.693-0.128,1.295-0.385,1.809
			s-0.593,0.943-1.009,1.289c-0.416,0.347-0.883,0.605-1.401,0.777c-0.517,0.171-1.033,0.256-1.546,0.256h-2.743V87.757z
			 M112.07,95.272h1.669c0.622,0,1.165-0.097,1.628-0.291c0.463-0.195,0.846-0.449,1.15-0.764c0.303-0.315,0.531-0.675,0.683-1.079
			s0.228-0.821,0.228-1.249c0-0.427-0.076-0.844-0.228-1.249s-0.379-0.764-0.683-1.079c-0.304-0.315-0.687-0.57-1.15-0.764
			c-0.463-0.195-1.005-0.291-1.628-0.291h-1.669V95.272z"/>
		<path fill="#FFFFFF" d="M124.989,95.272h4.423v0.747h-5.263v-8.263h5.123v0.747h-4.283v2.835h4.003v0.747h-4.003V95.272z"/>
		<g>
			<path fill="#FFFFFF" d="M218.639,94.596h0.012l2.766-6.839h1.284v8.263h-0.84v-7.178h-0.024l-2.988,7.178h-0.443l-2.988-7.178
				h-0.023v7.178h-0.841v-8.263h1.284L218.639,94.596z"/>
			<path fill="#FFFFFF" d="M228.068,95.272h4.423v0.747h-5.263v-8.263h5.123v0.747h-4.283v2.835h4.003v0.747h-4.003V95.272z"/>
			<path fill="#FFFFFF" d="M236.471,87.757h2.743c0.514,0,1.029,0.085,1.546,0.257c0.518,0.171,0.984,0.43,1.401,0.776
				c0.416,0.346,0.752,0.778,1.009,1.295c0.256,0.518,0.385,1.119,0.385,1.803c0,0.693-0.129,1.295-0.385,1.809
				c-0.257,0.514-0.593,0.943-1.009,1.289c-0.417,0.347-0.883,0.605-1.401,0.777c-0.517,0.171-1.032,0.256-1.546,0.256h-2.743
				V87.757z M237.311,95.272h1.669c0.623,0,1.165-0.097,1.628-0.291c0.462-0.195,0.846-0.449,1.149-0.764
				c0.304-0.315,0.531-0.675,0.683-1.079c0.151-0.405,0.227-0.821,0.227-1.249c0-0.427-0.076-0.844-0.227-1.249
				c-0.152-0.405-0.379-0.764-0.683-1.079c-0.304-0.315-0.687-0.57-1.149-0.764c-0.463-0.195-1.005-0.291-1.628-0.291h-1.669V95.272
				z"/>
			<path fill="#FFFFFF" d="M248.48,96.019h-0.841v-8.263h0.841V96.019z"/>
			<path fill="#FFFFFF" d="M252.949,96.019h-0.922l3.57-8.263h0.817l3.548,8.263h-0.934l-0.91-2.17h-4.271L252.949,96.019z
				 M254.163,93.078h3.641l-1.82-4.388L254.163,93.078z"/>
			<path fill="#FFFFFF" d="M268.553,87.757h2.743c0.514,0,1.029,0.085,1.546,0.257c0.518,0.171,0.984,0.43,1.401,0.776
				c0.416,0.346,0.752,0.778,1.009,1.295c0.256,0.518,0.385,1.119,0.385,1.803c0,0.693-0.129,1.295-0.385,1.809
				c-0.257,0.514-0.593,0.943-1.009,1.289c-0.417,0.347-0.883,0.605-1.401,0.777c-0.517,0.171-1.032,0.256-1.546,0.256h-2.743
				V87.757z M269.393,95.272h1.669c0.623,0,1.165-0.097,1.628-0.291c0.462-0.195,0.846-0.449,1.149-0.764
				c0.304-0.315,0.531-0.675,0.683-1.079c0.151-0.405,0.227-0.821,0.227-1.249c0-0.427-0.076-0.844-0.227-1.249
				c-0.152-0.405-0.379-0.764-0.683-1.079c-0.304-0.315-0.687-0.57-1.149-0.764c-0.463-0.195-1.005-0.291-1.628-0.291h-1.669V95.272
				z"/>
			<path fill="#FFFFFF" d="M280.561,96.019h-0.84v-8.263h0.84V96.019z"/>
			<path fill="#FFFFFF" d="M291.357,89.25c-0.288-0.304-0.63-0.539-1.027-0.706c-0.396-0.168-0.852-0.251-1.365-0.251
				c-0.529,0-1.005,0.097-1.429,0.291c-0.424,0.194-0.784,0.456-1.079,0.786c-0.296,0.33-0.523,0.712-0.683,1.147
				c-0.16,0.436-0.239,0.894-0.239,1.375c0,0.482,0.08,0.94,0.239,1.375c0.16,0.436,0.387,0.816,0.683,1.142
				c0.296,0.326,0.655,0.586,1.079,0.781c0.424,0.194,0.9,0.291,1.429,0.291c0.466,0,0.895-0.051,1.284-0.152
				c0.389-0.101,0.704-0.23,0.945-0.385v-2.509h-1.925v-0.747h2.765v3.732c-0.451,0.274-0.938,0.476-1.459,0.609
				s-1.062,0.199-1.622,0.199c-0.623,0-1.198-0.109-1.727-0.326c-0.529-0.218-0.984-0.519-1.365-0.904
				c-0.382-0.385-0.679-0.843-0.893-1.372c-0.214-0.529-0.321-1.109-0.321-1.739c0-0.63,0.108-1.21,0.326-1.739
				c0.217-0.529,0.519-0.986,0.904-1.371c0.385-0.386,0.84-0.687,1.365-0.905c0.525-0.217,1.095-0.326,1.71-0.326
				c0.661,0,1.237,0.099,1.727,0.296c0.49,0.198,0.91,0.472,1.261,0.824L291.357,89.25z"/>
			<path fill="#FFFFFF" d="M297.355,96.019h-0.841v-8.263h0.841V96.019z"/>
			<path fill="#FFFFFF" d="M304.532,96.019h-0.84v-7.515h-2.766v-0.747h6.372v0.747h-2.766V96.019z"/>
			<path fill="#FFFFFF" d="M310.111,96.019h-0.922l3.571-8.263h0.816l3.548,8.263h-0.934l-0.91-2.17h-4.271L310.111,96.019z
				 M311.325,93.078h3.641l-1.82-4.388L311.325,93.078z"/>
			<path fill="#FFFFFF" d="M321.513,95.272h3.851v0.747h-4.691v-8.263h0.84V95.272z"/>
		</g>
		<g>
			<path fill="#FFFFFF" d="M60.623,42.674h7.371c0.891,0,1.825,0.103,2.8,0.307c0.976,0.205,1.867,0.56,2.674,1.066
				c0.807,0.506,1.469,1.199,1.988,2.078c0.518,0.88,0.777,1.982,0.777,3.306c0,1.156-0.211,2.156-0.633,2.999
				c-0.422,0.843-0.988,1.536-1.698,2.077c-0.711,0.542-1.53,0.946-2.457,1.211c-0.928,0.265-1.897,0.398-2.909,0.398h-5.529v12.141
				h-2.385V42.674z M63.008,53.947h5.42c0.674,0,1.337-0.078,1.988-0.235c0.65-0.156,1.228-0.409,1.734-0.759
				c0.506-0.349,0.915-0.813,1.228-1.391c0.313-0.578,0.47-1.288,0.47-2.132c0-0.819-0.162-1.518-0.488-2.096
				c-0.325-0.578-0.747-1.054-1.265-1.427c-0.518-0.373-1.114-0.644-1.788-0.813c-0.675-0.169-1.35-0.253-2.024-0.253h-5.276V53.947
				z"/>
			<path fill="#FFFFFF" d="M81.363,42.674h2.385v23.415h11.924v2.168H81.363V42.674z"/>
			<path fill="#FFFFFF" d="M107.271,42.674h2.457l10.768,25.583h-2.674l-2.782-6.793h-13.55l-2.891,6.793h-2.493L107.271,42.674z
				 M108.391,45.276l-5.962,14.02h11.744L108.391,45.276z"/>
			<path fill="#FFFFFF" d="M127.398,44.842h-8.745v-2.168h19.874v2.168h-8.744v23.415h-2.385V44.842z"/>
			<path fill="#FFFFFF" d="M147.849,42.674h2.457l10.768,25.583H158.4l-2.782-6.793h-13.55l-2.891,6.793h-2.493L147.849,42.674z
				 M148.97,45.276l-5.962,14.02h11.744L148.97,45.276z"/>
			<path fill="#FFFFFF" d="M164.76,42.674h15.321v2.168h-12.936v9.106h12.033v2.168h-12.033v12.141h-2.385V42.674z"/>
			<path fill="#FFFFFF" d="M183.188,55.465c0-1.951,0.325-3.745,0.976-5.384c0.65-1.638,1.554-3.054,2.71-4.246
				c1.156-1.193,2.548-2.126,4.174-2.8s3.415-1.012,5.366-1.012c1.951,0,3.74,0.337,5.366,1.012s3.017,1.608,4.173,2.8
				c1.156,1.192,2.06,2.608,2.71,4.246c0.65,1.638,0.976,3.432,0.976,5.384c0,1.951-0.325,3.752-0.976,5.402
				c-0.65,1.65-1.554,3.071-2.71,4.264c-1.156,1.193-2.547,2.12-4.173,2.782s-3.415,0.994-5.366,0.994
				c-1.951,0-3.74-0.331-5.366-0.994s-3.017-1.59-4.174-2.782c-1.156-1.193-2.06-2.614-2.71-4.264
				C183.513,59.218,183.188,57.417,183.188,55.465z M185.573,55.465c0,1.59,0.253,3.071,0.759,4.444
				c0.506,1.373,1.228,2.566,2.168,3.577c0.939,1.011,2.078,1.807,3.415,2.385c1.337,0.578,2.837,0.867,4.499,0.867
				c1.662,0,3.162-0.289,4.499-0.867c1.337-0.578,2.475-1.373,3.415-2.385c0.94-1.012,1.662-2.204,2.168-3.577
				c0.506-1.373,0.759-2.855,0.759-4.444c0-1.59-0.253-3.071-0.759-4.444c-0.506-1.373-1.228-2.566-2.168-3.577
				c-0.939-1.012-2.077-1.807-3.415-2.385c-1.337-0.578-2.837-0.867-4.499-0.867c-1.662,0-3.162,0.289-4.499,0.867
				c-1.337,0.578-2.475,1.373-3.415,2.385s-1.662,2.204-2.168,3.577C185.826,52.394,185.573,53.875,185.573,55.465z"/>
			<path fill="#FFFFFF" d="M214.986,42.674h6.721c0.337,0,0.795,0.012,1.373,0.036c0.578,0.024,1.204,0.096,1.879,0.217
				c0.674,0.121,1.361,0.313,2.06,0.578c0.698,0.265,1.324,0.65,1.879,1.156c0.554,0.506,1.012,1.145,1.373,1.915
				c0.361,0.771,0.542,1.711,0.542,2.819c0,1.228-0.212,2.24-0.633,3.035c-0.422,0.795-0.952,1.44-1.59,1.933
				c-0.638,0.494-1.343,0.862-2.114,1.102c-0.771,0.241-1.505,0.41-2.204,0.506l7.444,12.285h-2.711l-7.19-12.141h-4.444v12.141
				h-2.385V42.674z M217.371,53.947h5.059c1.252,0,2.27-0.156,3.054-0.47c0.782-0.313,1.391-0.698,1.824-1.156
				c0.434-0.458,0.729-0.952,0.886-1.482c0.156-0.53,0.234-1.012,0.234-1.445c0-0.433-0.078-0.915-0.234-1.445
				c-0.157-0.53-0.452-1.024-0.886-1.482c-0.433-0.457-1.042-0.843-1.824-1.156c-0.783-0.313-1.802-0.47-3.054-0.47h-5.059V53.947z"
				/>
			<path fill="#FFFFFF" d="M236.16,42.674h3.577l9.323,21.464l9.323-21.464h3.396v25.583h-2.385V45.709h-0.072l-9.757,22.547h-1.048
				l-9.901-22.547h-0.072v22.547h-2.384V42.674z"/>
			<path fill="#FFFFFF" d="M276.376,42.674h2.458l10.768,25.583h-2.673l-2.782-6.793h-13.551l-2.891,6.793h-2.493L276.376,42.674z
				 M277.496,45.276l-5.962,14.02h11.744L277.496,45.276z"/>
		</g>
		<path id="XMLID_13_" fill="#FFFFFF" d="M138.924,98.393"/>
		<rect x="56.931" y="72.396" fill="#FFFFFF" width="235" height="2"/>
		<path fill="#FFFFFF" d="M160.32,96.841c-0.652,1.878-3.163,1.84-3.45,1.84c-0.575,0-1.112-0.096-1.284-0.134
			c-0.997-0.191-1.878-0.633-2.281-1.61c-0.192-0.498-0.192-0.92-0.192-1.418v-7.361c0-0.23,0.019-0.479,0.038-0.709
			c0.038-0.863,0.269-1.534,0.959-2.09c0.556-0.44,1.303-0.786,2.799-0.786c0.863,0,1.782,0.115,2.53,0.613
			c0.364,0.249,0.671,0.594,0.843,0.997c0.211,0.44,0.23,0.709,0.23,1.533v2.07h-2.454v-1.705c0-1.035-0.173-1.591-1.284-1.591
			c-0.959,0-1.15,0.594-1.15,1.477v7.245c0,0.882,0.192,1.534,1.227,1.534c1.112,0,1.208-0.633,1.208-1.668v-1.763h2.454v1.917
			C160.512,95.767,160.493,96.342,160.32,96.841z"/>
		<path fill="#FFFFFF" d="M167.357,98.393l-1.917-6h-0.939v6h-2.492V84.86h4.984c1.648,0,2.434,0.767,2.434,2.415v2.454
			c0,1.342-0.403,1.955-1.591,2.319l2.108,6.345H167.357z M166.954,87.908c0-0.843-0.288-1.112-1.15-1.112h-1.303V90.4h1.303
			c0.862,0,1.15-0.307,1.15-1.285V87.908z"/>
		<path fill="#FFFFFF" d="M177.786,97.78c-0.805,0.747-1.898,0.9-2.933,0.9c-0.997,0-2.013-0.134-2.818-0.786
			c-0.403-0.326-0.594-0.652-0.671-0.843c-0.23-0.479-0.288-1.054-0.288-1.553v-7.59c0-0.287-0.057-1.648,0.843-2.454
			c0.499-0.441,1.438-0.882,2.952-0.882c1.955,0,2.99,0.805,3.393,1.591c0.211,0.441,0.307,0.863,0.307,1.802v7.533
			C178.572,96.361,178.438,97.147,177.786,97.78z M176.061,88.138c0-0.077,0.058-0.69-0.153-1.092
			c-0.115-0.249-0.403-0.594-1.035-0.594c-0.134,0-0.499,0.02-0.805,0.249c-0.556,0.383-0.479,0.978-0.479,1.534v6.843
			c0,0.403-0.019,0.901,0.23,1.246c0.287,0.402,0.901,0.402,1.016,0.402c0.115,0,0.479-0.019,0.786-0.23
			c0.46-0.326,0.441-0.863,0.441-1.361V88.138z"/>
		<path fill="#FFFFFF" d="M187.411,96.61c-0.306,1.092-1.208,2.07-3.508,2.07c-0.959,0-1.975-0.134-2.78-0.767
			c-0.441-0.345-0.613-0.709-0.709-0.92c-0.153-0.383-0.268-0.633-0.268-1.399V93.62h2.473v1.572c0,0.498-0.039,1.073,0.441,1.38
			c0.153,0.096,0.383,0.192,0.767,0.192c0.441,0,0.69-0.096,0.863-0.25c0.364-0.287,0.364-0.882,0.364-1.802
			c0-0.173,0.038-0.786-0.269-1.246c-0.192-0.287-0.479-0.46-0.575-0.536l-2.358-1.591c-0.518-0.345-0.786-0.556-1.131-1.112
			c-0.287-0.479-0.479-0.996-0.479-2.147c0-0.192-0.019-1.15,0.326-1.859c0.766-1.648,3.086-1.648,3.354-1.648
			c0.403,0,2.569,0,3.278,1.783c0.134,0.344,0.211,0.479,0.211,1.131v1.342h-2.492v-1.38c0-0.403-0.153-0.978-1.112-0.978
			c-0.575,0-1.112,0.211-1.112,1.342c0,0.058-0.038,0.863,0.268,1.303c0.077,0.116,0.249,0.249,0.518,0.441l2.415,1.667
			c0.173,0.116,0.709,0.518,1.112,1.055c0.594,0.786,0.537,1.38,0.537,2.338C187.545,95.652,187.545,96.093,187.411,96.61z"/>
		<path fill="#FFFFFF" d="M196.192,96.61c-0.306,1.092-1.208,2.07-3.508,2.07c-0.959,0-1.975-0.134-2.78-0.767
			c-0.441-0.345-0.613-0.709-0.709-0.92c-0.153-0.383-0.268-0.633-0.268-1.399V93.62h2.473v1.572c0,0.498-0.039,1.073,0.441,1.38
			c0.153,0.096,0.383,0.192,0.767,0.192c0.441,0,0.69-0.096,0.863-0.25c0.364-0.287,0.364-0.882,0.364-1.802
			c0-0.173,0.038-0.786-0.269-1.246c-0.192-0.287-0.479-0.46-0.575-0.536l-2.358-1.591c-0.518-0.345-0.786-0.556-1.131-1.112
			c-0.287-0.479-0.479-0.996-0.479-2.147c0-0.192-0.019-1.15,0.326-1.859c0.766-1.648,3.086-1.648,3.354-1.648
			c0.403,0,2.569,0,3.278,1.783c0.134,0.344,0.211,0.479,0.211,1.131v1.342H193.7v-1.38c0-0.403-0.153-0.978-1.112-0.978
			c-0.575,0-1.112,0.211-1.112,1.342c0,0.058-0.038,0.863,0.268,1.303c0.077,0.116,0.25,0.249,0.518,0.441l2.415,1.667
			c0.173,0.116,0.709,0.518,1.112,1.055c0.594,0.786,0.537,1.38,0.537,2.338C196.326,95.652,196.326,96.093,196.192,96.61z"/>
		<g>
			<polygon fill="#FFFFFF" points="150.781,98.396 138.69,107.461 138.76,108.396 140.02,108.396 152.262,98.396 			"/>
			<polygon fill="#FFFFFF" points="153.139,82.396 140.231,74.396 156.251,74.396 170.481,82.396 172.019,82.396 157.789,74.396 
				188.732,74.396 175.266,82.396 176.746,82.396 190.212,74.396 207.638,74.396 194.702,82.396 196.144,82.396 210.255,72.396 
				190.696,72.396 190.462,72.051 189.956,72.396 156.496,72.396 156.283,72.259 156.195,72.396 137.618,72.396 151.7,82.396 			"/>
			<rect x="139.931" y="90.396" fill="#FFFFFF" width="7" height="1"/>
			<rect x="201.931" y="90.396" fill="#FFFFFF" width="8" height="1"/>
			<polygon fill="#FFFFFF" points="171.183,98.396 159.423,108.396 160.864,108.396 172.624,98.396 			"/>
			<polygon fill="#FFFFFF" points="196.353,98.396 208.721,107.134 209.173,106.05 197.891,98.396 			"/>
			<polygon fill="#FFFFFF" points="175.171,98.396 186.906,108.396 188.345,108.396 176.61,98.396 			"/>
		</g>
	</g>
</g>
</svg>
